<svg id="Camada_1" data-name="Camada 1" xmlns="http://www.w3.org/2000/svg" viewBox="0 0 142 142"><defs><style>.cls-1{fill:#145163;}.cls-2,.cls-3,.cls-4,.cls-5{fill:#fff;}.cls-2,.cls-3,.cls-4{fill-rule:evenodd;}.cls-3,.cls-4{stroke:#fff;stroke-miterlimit:10;}.cls-3{stroke-width:0.24px;}.cls-4{stroke-width:0.48px;}</style></defs><title>logo-white</title><path class="cls-1" d="M0,0H142a0,0,0,0,1,0,0V109.86A32.14,32.14,0,0,1,109.86,142H0a0,0,0,0,1,0,0V0A0,0,0,0,1,0,0Z"/><path class="cls-2" d="M122.91,92.54a.65.65,0,0,0,.65-.6v-1a3.67,3.67,0,0,0-1.2-2.77,4.71,4.71,0,0,0-6.12,0,3.67,3.67,0,0,0-1.2,2.77v2a3.58,3.58,0,0,0,1.2,2.77,4.59,4.59,0,0,0,3.15,1.11,4.64,4.64,0,0,0,2.79-.84c.8-.56,1.2-1.07,1.2-1.51a.89.89,0,0,0-.18-.53.56.56,0,0,0-.44-.2.64.64,0,0,0-.56.27,3.42,3.42,0,0,1-2.81,1.53,3.17,3.17,0,0,1-2.15-.76,2.45,2.45,0,0,1-.85-1.86v-.36ZM117.24,89a3.22,3.22,0,0,1,4.17,0,2.48,2.48,0,0,1,.82,1.86v.36h-5.79l0-.36A2.34,2.34,0,0,1,117.24,89Z"/><path class="cls-2" d="M112.45,87.38a.8.8,0,0,0-.49-.18.78.78,0,0,0-.49.18.56.56,0,0,0-.2.44v.64h-.09l-.26-.35a3.11,3.11,0,0,0-1-.73,3.19,3.19,0,0,0-1.58-.36,4.3,4.3,0,0,0-3.06,1.13,3.66,3.66,0,0,0-1.19,2.77v1.65a3.66,3.66,0,0,0,1.19,2.77,4.4,4.4,0,0,0,3.09,1.11,3.54,3.54,0,0,0,1.06-.16,3,3,0,0,0,.78-.33,5.7,5.7,0,0,0,.55-.42,2,2,0,0,0,.31-.34l.11-.13h.09V96.6a2.41,2.41,0,0,1-.84,1.86,3,3,0,0,1-2.15.76,3.44,3.44,0,0,1-2.82-1.55.65.65,0,0,0-.53-.27.56.56,0,0,0-.44.2.65.65,0,0,0-.18.53c0,.45.4,1,1.2,1.51a4.64,4.64,0,0,0,2.79.84,4.47,4.47,0,0,0,3.15-1.11,3.6,3.6,0,0,0,1.2-2.77V87.82A.56.56,0,0,0,112.45,87.38Zm-1.22,5.16a2.43,2.43,0,0,1-.82,1.87,3.22,3.22,0,0,1-4.17,0,2.46,2.46,0,0,1-.82-1.87V90.9a2.34,2.34,0,0,1,.82-1.86,3.07,3.07,0,0,1,2.1-.75,3,3,0,0,1,2.07.73,2.22,2.22,0,0,1,.82,1.71Z"/><path class="cls-2" d="M100.67,88.09A3.92,3.92,0,0,0,97.83,87a4.34,4.34,0,0,0-2.61.76c-.74.48-1.09.93-1.09,1.33a.91.91,0,0,0,.18.53.56.56,0,0,0,.44.2.72.72,0,0,0,.55-.27,3.23,3.23,0,0,1,2.53-1.26,2.54,2.54,0,0,1,1.82.71,2.38,2.38,0,0,1,.73,1.73V91H97.5a4.76,4.76,0,0,0-3,.8,2.66,2.66,0,0,0,0,4.17,4.37,4.37,0,0,0,2.81.8,3.73,3.73,0,0,0,1.11-.16,4.73,4.73,0,0,0,.84-.33,3.41,3.41,0,0,0,.58-.44,1.61,1.61,0,0,0,.33-.36l.11-.15h.09V96a.56.56,0,0,0,.2.44.65.65,0,0,0,.49.18.84.84,0,0,0,.51-.18.63.63,0,0,0,.2-.44V90.73A3.51,3.51,0,0,0,100.67,88.09Zm-.29,5a2.21,2.21,0,0,1-.84,1.73,3.58,3.58,0,0,1-2.24.69,2.93,2.93,0,0,1-1.75-.45,1.42,1.42,0,0,1-.6-1.17,1.41,1.41,0,0,1,.62-1.18,3.09,3.09,0,0,1,1.91-.44h2.9Z"/><path class="cls-2" d="M91.14,83.67a.61.61,0,0,0-.51-.17.77.77,0,0,0-.49.17.55.55,0,0,0-.2.45V96a.53.53,0,0,0,.2.44.64.64,0,0,0,.49.18.86.86,0,0,0,.51-.18.55.55,0,0,0,.19-.44V84.12A.57.57,0,0,0,91.14,83.67Z"/><path class="cls-2" d="M86.7,83.67a.59.59,0,0,0-.51-.17.79.79,0,0,0-.49.17.58.58,0,0,0-.2.45V96a.56.56,0,0,0,.2.44.65.65,0,0,0,.49.18.84.84,0,0,0,.51-.18.63.63,0,0,0,.2-.44V84.12A.58.58,0,0,0,86.7,83.67Z"/><path class="cls-2" d="M82.4,83.92a1,1,0,0,0-1.33,0,.93.93,0,0,0-.25.64,1,1,0,0,0,.25.67,1,1,0,0,0,1.33,0,1.08,1.08,0,0,0,.24-.67A1,1,0,0,0,82.4,83.92Z"/><path class="cls-2" d="M82.18,87.38a.67.67,0,0,0-.51-.18.78.78,0,0,0-.49.18.56.56,0,0,0-.2.44V96a.56.56,0,0,0,.2.44.64.64,0,0,0,.49.18.86.86,0,0,0,.51-.18.56.56,0,0,0,.2-.44V87.82A.56.56,0,0,0,82.18,87.38Z"/><path class="cls-2" d="M79.09,83.92a.55.55,0,0,0-.44-.2.9.9,0,0,0-.82.64L73.62,94.87h-.11L69.34,84.38l-.07-.15a.67.67,0,0,0-.31-.31.82.82,0,0,0-.44-.16.58.58,0,0,0-.45.2.7.7,0,0,0-.18.53,2.32,2.32,0,0,0,.18.65l4.44,11a1.3,1.3,0,0,0,.42.51,1.15,1.15,0,0,0,.64.18,1.08,1.08,0,0,0,.67-.22,1.48,1.48,0,0,0,.42-.51l4.43-11,.18-.64A.73.73,0,0,0,79.09,83.92Z"/><path class="cls-2" d="M60.51,88.06A4.11,4.11,0,0,0,57.56,87a3.19,3.19,0,0,0-1,.15,5.48,5.48,0,0,0-.8.34,3.54,3.54,0,0,0-.55.44,3.92,3.92,0,0,0-.33.36l-.12.15h-.08V84.09a.57.57,0,0,0-.2-.44.62.62,0,0,0-.49-.18.78.78,0,0,0-.49.18.57.57,0,0,0-.2.44V96a.56.56,0,0,0,.2.44.72.72,0,0,0,.49.18.74.74,0,0,0,.49-.18.56.56,0,0,0,.2-.44V90.73A2.22,2.22,0,0,1,55.48,89a3,3,0,0,1,2.08-.73,2.71,2.71,0,0,1,1.95.71,2.26,2.26,0,0,1,.76,1.73V96a.53.53,0,0,0,.2.44.56.56,0,0,0,.48.18.72.72,0,0,0,.49-.18.63.63,0,0,0,.2-.44V90.73A3.5,3.5,0,0,0,60.51,88.06Z"/><path class="cls-2" d="M49.29,88.09A3.83,3.83,0,0,0,46.5,87a4.41,4.41,0,0,0-2.62.75c-.73.49-1.09.94-1.09,1.33a.94.94,0,0,0,.18.54.57.57,0,0,0,.44.2.73.73,0,0,0,.56-.25,3.21,3.21,0,0,1,2.53-1.26,2.51,2.51,0,0,1,1.81.71,2.39,2.39,0,0,1,.74,1.73V91H46.14a4.76,4.76,0,0,0-3,.8,2.5,2.5,0,0,0-1,2.09,2.57,2.57,0,0,0,1,2.08,4.42,4.42,0,0,0,2.82.8,3.77,3.77,0,0,0,1.11-.16,4.73,4.73,0,0,0,.84-.33,2.77,2.77,0,0,0,.58-.44,2.39,2.39,0,0,0,.35-.36l.11-.15H49V96a.56.56,0,0,0,.2.44.65.65,0,0,0,.49.18.72.72,0,0,0,.49-.18.56.56,0,0,0,.2-.44V90.73A3.51,3.51,0,0,0,49.29,88.09Zm-.22,5a2.21,2.21,0,0,1-.85,1.73,3.59,3.59,0,0,1-2.23.69,3,3,0,0,1-1.76-.45,1.45,1.45,0,0,1-.6-1.17,1.42,1.42,0,0,1,.63-1.18,3.08,3.08,0,0,1,1.9-.44h2.91Z"/><path class="cls-2" d="M39.35,88.13a4.63,4.63,0,0,0-4.12-1,3.05,3.05,0,0,0-.8.34,2.18,2.18,0,0,0-.53.42,2.57,2.57,0,0,0-.33.33l-.09.15h-.09V84.12a.58.58,0,0,0-.2-.45.76.76,0,0,0-1,0,.47.47,0,0,0-.17.45V92.9a3.66,3.66,0,0,0,1.19,2.77,4.71,4.71,0,0,0,6.12,0,3.67,3.67,0,0,0,1.2-2.77v-2A3.67,3.67,0,0,0,39.35,88.13ZM39.2,92.9a2.39,2.39,0,0,1-.82,1.86,3.24,3.24,0,0,1-4.17,0,2.46,2.46,0,0,1-.82-1.86v-2A2.41,2.41,0,0,1,34.21,89a2.87,2.87,0,0,1,2.08-.75,3,3,0,0,1,2.09.75,2.48,2.48,0,0,1,.82,1.86Z"/><path class="cls-2" d="M27.8,84.94a5.43,5.43,0,0,0-3.92-1.44A5.44,5.44,0,0,0,20,84.94a4.89,4.89,0,0,0-1.51,3.7v3.08A4.93,4.93,0,0,0,20,95.43a5.48,5.48,0,0,0,3.93,1.44,5.47,5.47,0,0,0,3.92-1.44,4.93,4.93,0,0,0,1.51-3.71V88.64A4.89,4.89,0,0,0,27.8,84.94Zm.07,6.76a3.72,3.72,0,0,1-1.11,2.73,4,4,0,0,1-2.88,1.09A3.86,3.86,0,0,1,21,94.43a3.64,3.64,0,0,1-1.11-2.73V88.62A3.64,3.64,0,0,1,21,85.89a3.94,3.94,0,0,1,2.86-1.09,4,4,0,0,1,2.88,1.09,3.72,3.72,0,0,1,1.11,2.73Z"/><path class="cls-3" d="M95.61,75.94a.72.72,0,0,0-.26.26c-3.51,1.76-4.15-3.12-4.59-4.9-.69-2.77-4-5.47-6.43-4.54l-.14.86c1.51,1.44,4.33,6.19,3,7.92C84.9,78.49,85,74.1,84.53,72.66c-1.76-5.24-9.1,1-4.17,4.54a20.41,20.41,0,0,0-4.61.22c-.14,0-.27.07-.27.22a.27.27,0,0,0,.27.27,18.08,18.08,0,0,1,5.67-.09,10.4,10.4,0,0,0,1.09.45.51.51,0,0,0,.6-.34.51.51,0,0,0-.31-.64c-6.63-2.48-.54-8.12.75-4.3.29.89,1,7.67,4.48,3.15,1.6-2.07-.55-6.23-2.28-8.43,6,.47,2.5,12.26,10,9.47C97.21,76.67,96.66,75.47,95.61,75.94Z"/><path class="cls-3" d="M83.64,53.67c-.58-3.35,0-4.1-4.81-4.48a5,5,0,0,0-1-.1.79.79,0,0,0-.51.18l0,0a.53.53,0,0,0-.15.35.5.5,0,0,0,.16.36h0a.75.75,0,0,0,.53.2H78a3.67,3.67,0,0,1,3,3.3C76.68,51.34,69.6,57.24,75.68,56c.71-.13,3.7-.51,4,.69a.54.54,0,0,0,.6.42.54.54,0,0,0,.42-.6c-.49-2.26-3.82-1.71-5.55-1.4,1.4-.82,4.15-1.51,5.42-.71,2.12,1.33,1.61-2.06-.05-4,1,.17,2,.57,2.11,1.82.73,5.38.06,1.44,3.77,2.15,2.57.48,3.24,1.62,3.46,3.08a3.91,3.91,0,0,0-4.59-1.64c-2.71.75,2.3,2.1.62,5.74-.27-1.71-.71-3.55-2.66-3.9-4.13-.76-7.39,3.17-9.74,7.85a28.73,28.73,0,0,0-10.27-8.43c-9.15-4-18.16.51-17.8,10.36.28,8.16,6.69,11,13.61,12.39v-.08a.45.45,0,0,0,.49-.4.44.44,0,0,0-.4-.49C52.68,77.51,46.56,75,46.27,67.31c-.35-9.21,8-13.15,16.5-9.45A28.32,28.32,0,0,1,73,66.4a59.92,59.92,0,0,0-3.64,10.8c-1.15,5.1,6.24-.14,6.7-1.16,1.35-2.94.27-6.43-1.91-9.66.65-1.42,1.18-2.53,1.42-2.93,1.6-2.57,7.7-7.5,8.92-3.42.4,1.33.15,3.15,1,3.42A3.94,3.94,0,0,0,85.88,57s-.18-.14-.29-.25c.84-.15,3,.33,3.26.84,0,0,1.75,5.1,2.15,2.58C91.82,54.84,87.1,52,83.64,53.67Zm-8.47,22c-.56,1.22-4.3,2.73-5.06,2.81-.29-1.48,1.84-7,3.55-11C75.46,70.28,76.3,73.23,75.17,75.67Z"/><path class="cls-4" d="M71,25.57a32.33,32.33,0,0,0-27.74,48.9h1a31.43,31.43,0,1,1,53.42,0h1A32.33,32.33,0,0,0,71,25.57Z"/><path class="cls-5" d="M27.49,109.94h.86c.69,0,1,.35,1,1.11v.28c0,.7-.21,1.22-1.06,1.22H28v2h-.5Zm.5,2.19h.28c.53,0,.6-.32.6-.81v-.25c0-.38-.08-.71-.56-.71H28Z"/><path class="cls-5" d="M32.59,112.43v2.17h-.5v-4.66h.82c.7,0,1,.31,1,1.08v.21c0,.63-.22.89-.47,1,.29.11.43.33.43,1A10.74,10.74,0,0,0,34,114.6h-.49a12.73,12.73,0,0,1,0-1.4c0-.6-.08-.77-.54-.77Zm0-.42h.3c.45,0,.56-.26.56-.76V111c0-.42-.11-.68-.58-.68h-.28Z"/><path class="cls-5" d="M38.29,112.35h-1v1.8h1.19l-.07.45H36.75v-4.66h1.6v.46h-1.1v1.49h1Z"/><path class="cls-5" d="M41.66,113.12l-.22,1.48h-.5l.76-4.66h.71l.8,4.66h-.52l-.24-1.48Zm.72-.46c-.16-1-.28-1.82-.32-2.26h0c0,.36-.19,1.41-.31,2.26Zm.72-3.72-.82.7h-.49l.68-.7Z"/><path class="cls-5" d="M50,112.55V113H48.86v-.46Z"/><path class="cls-5" d="M57.74,113.27v.15c0,.6-.11,1.24-1,1.24s-.95-.57-.95-1.25V111c0-.75.32-1.16,1-1.16s.92.56.92,1.17v.18h-.51V111c0-.37-.05-.68-.42-.68s-.44.28-.44.69v2.42c0,.47.1.77.45.77s.43-.31.43-.75v-.19Z"/><path class="cls-5" d="M62,112.35h-1v1.8h1.18l-.06.45H60.44v-4.66H62v.46h-1.1v1.49h1Z"/><path class="cls-5" d="M65.35,113.12l-.22,1.48h-.5l.76-4.66h.71l.79,4.66h-.51l-.24-1.48Zm.72-.46c-.16-1-.28-1.82-.32-2.26h0c0,.36-.19,1.41-.31,2.26Z"/><path class="cls-5" d="M70,112.43v2.17h-.49v-4.66h.81c.7,0,1,.31,1,1.08v.21c0,.63-.23.89-.48,1,.3.11.44.33.44,1a12.9,12.9,0,0,0,0,1.43H70.9a10.66,10.66,0,0,1-.05-1.4c0-.6-.09-.77-.55-.77Zm0-.42h.31c.44,0,.56-.26.56-.76V111c0-.42-.12-.68-.59-.68H70Z"/><path class="cls-5" d="M74.68,113.12l-.22,1.48H74l.76-4.66h.71l.8,4.66h-.52l-.24-1.48Zm.72-.46c-.16-1-.28-1.82-.32-2.26h0c0,.36-.18,1.41-.31,2.26Zm.72-3.72-.82.7h-.49l.68-.7Z"/><path class="cls-5" d="M83.05,112.55V113H81.88v-.46Z"/><path class="cls-5" d="M89,109.94h.81c.72,0,1,.38,1,1v.21c0,.65-.2.85-.44.94.26.08.53.3.53.93v.35c0,.81-.28,1.21-1.07,1.21H89Zm.79,2c.42,0,.54-.17.54-.72V111c0-.43-.15-.64-.55-.64h-.3v1.56Zm-.31,2.26h.3c.5,0,.63-.24.63-.8v-.32c0-.51-.18-.73-.63-.73h-.3Z"/><path class="cls-5" d="M94.12,112.43v2.17h-.49v-4.66h.81c.7,0,1,.31,1,1.08v.21c0,.63-.22.89-.47,1,.29.11.43.33.43,1a12.74,12.74,0,0,0,0,1.43H95a12.79,12.79,0,0,1,0-1.4c0-.6-.09-.77-.55-.77Zm0-.42h.31c.44,0,.55-.26.55-.76V111c0-.42-.11-.68-.58-.68h-.28Z"/><path class="cls-5" d="M98.79,113.12l-.22,1.48h-.51l.77-4.66h.71l.79,4.66h-.52l-.24-1.48Zm.72-.46c-.16-1-.28-1.82-.32-2.26h0c0,.36-.19,1.41-.31,2.26Z"/><path class="cls-5" d="M103.37,113.29v.27c0,.44.16.67.48.67s.47-.24.47-.75a1.2,1.2,0,0,0-.61-1.14A1.41,1.41,0,0,1,103,111c0-.59.17-1.15.9-1.15s.88.46.88,1.06v.21h-.49V111c0-.39-.08-.64-.4-.64s-.4.28-.4.65.09.59.51.92a1.59,1.59,0,0,1,.86,1.53c0,.66-.19,1.25-1,1.25s-1-.49-1-1.1v-.27Z"/><path class="cls-5" d="M108.05,109.94v4.66h-.5v-4.66Z"/><path class="cls-5" d="M111,109.94h.5v4.22h1.17l0,.44H111Z"/></svg>