<svg id="Camada_1" data-name="Camada 1" xmlns="http://www.w3.org/2000/svg" viewBox="0 0 142 108.83"><defs><style>.cls-1{fill:#145163;}.cls-2,.cls-3{fill:#fff;fill-rule:evenodd;}.cls-3{stroke:#fff;stroke-miterlimit:10;stroke-width:0.25px;}</style></defs><title>obah-village-logotype</title><rect class="cls-1" x="-9" y="-18.08" width="159.37" height="153.68"/><path class="cls-2" d="M125.54,85.43a.69.69,0,0,0,.68-.63V83.73A3.88,3.88,0,0,0,125,80.81a5,5,0,0,0-6.43,0,3.88,3.88,0,0,0-1.26,2.92v2.09a3.82,3.82,0,0,0,1.26,2.92,4.81,4.81,0,0,0,3.31,1.16,4.86,4.86,0,0,0,2.93-.88q1.26-.88,1.26-1.59a1,1,0,0,0-.18-.56.59.59,0,0,0-.47-.21.67.67,0,0,0-.58.28,3.63,3.63,0,0,1-3,1.61,3.36,3.36,0,0,1-2.26-.79,2.62,2.62,0,0,1-.89-2v-.37Zm-6-3.68a3.39,3.39,0,0,1,4.38,0,2.58,2.58,0,0,1,.86,2v.38h-6.08l0-.38A2.48,2.48,0,0,1,119.58,81.75Z"/><path class="cls-2" d="M114.55,80a.79.79,0,0,0-1,0,.59.59,0,0,0-.21.47v.67h-.09l-.28-.37a3.32,3.32,0,0,0-1-.77,3.25,3.25,0,0,0-1.65-.37A4.5,4.5,0,0,0,107,80.81a3.91,3.91,0,0,0-1.26,2.92v1.72A3.87,3.87,0,0,0,107,88.36a4.6,4.6,0,0,0,3.24,1.17,4,4,0,0,0,1.12-.16,2.76,2.76,0,0,0,.81-.35,5.11,5.11,0,0,0,.59-.45,2.15,2.15,0,0,0,.32-.35l.12-.14h.09v1.61a2.54,2.54,0,0,1-.88,2,3.13,3.13,0,0,1-2.26.79,3.58,3.58,0,0,1-3-1.63.69.69,0,0,0-.56-.28.59.59,0,0,0-.47.21.68.68,0,0,0-.18.56c0,.47.41,1,1.25,1.58a4.92,4.92,0,0,0,2.94.89,4.74,4.74,0,0,0,3.31-1.17,3.77,3.77,0,0,0,1.26-2.91V80.47A.59.59,0,0,0,114.55,80Zm-1.29,5.43a2.5,2.5,0,0,1-.86,2,3.39,3.39,0,0,1-4.38,0,2.61,2.61,0,0,1-.86-2V83.7a2.52,2.52,0,0,1,.86-2,3.29,3.29,0,0,1,2.22-.8,3.18,3.18,0,0,1,2.16.77,2.34,2.34,0,0,1,.86,1.8Z"/><path class="cls-2" d="M102.17,80.75a4.08,4.08,0,0,0-3-1.12,4.58,4.58,0,0,0-2.75.79c-.77.51-1.14,1-1.14,1.4a1,1,0,0,0,.19.56.57.57,0,0,0,.46.21.79.79,0,0,0,.59-.28A3.35,3.35,0,0,1,99.19,81a2.63,2.63,0,0,1,1.91.74,2.56,2.56,0,0,1,.77,1.82v.28h-3a5,5,0,0,0-3.12.84,2.62,2.62,0,0,0-1.07,2.19,2.66,2.66,0,0,0,1,2.19,4.6,4.6,0,0,0,3,.84,4.11,4.11,0,0,0,1.16-.16,6.85,6.85,0,0,0,.89-.35,3.36,3.36,0,0,0,.6-.47,1.73,1.73,0,0,0,.35-.37l.12-.17h.09V89a.59.59,0,0,0,.21.47.7.7,0,0,0,.51.18,1,1,0,0,0,.54-.18.67.67,0,0,0,.21-.47V83.52A3.68,3.68,0,0,0,102.17,80.75Zm-.3,5.28a2.32,2.32,0,0,1-.88,1.82,3.73,3.73,0,0,1-2.36.72,3.14,3.14,0,0,1-1.84-.46,1.54,1.54,0,0,1-.63-1.24,1.47,1.47,0,0,1,.66-1.23,3.2,3.2,0,0,1,2-.47h3.05Z"/><path class="cls-2" d="M92.16,76.11a.66.66,0,0,0-.54-.19.78.78,0,0,0-.51.19.57.57,0,0,0-.21.46V89a.59.59,0,0,0,.21.47.68.68,0,0,0,.51.18,1,1,0,0,0,.54-.18.59.59,0,0,0,.21-.47V76.57A.57.57,0,0,0,92.16,76.11Z"/><path class="cls-2" d="M87.5,76.11a.66.66,0,0,0-.54-.19.78.78,0,0,0-.51.19.57.57,0,0,0-.21.46V89a.59.59,0,0,0,.21.47.68.68,0,0,0,.51.18,1,1,0,0,0,.54-.18.71.71,0,0,0,.21-.47V76.57A.57.57,0,0,0,87.5,76.11Z"/><path class="cls-2" d="M83,76.36a1,1,0,0,0-1.4,0,1,1,0,0,0-.26.68,1,1,0,0,0,.26.7,1.06,1.06,0,0,0,1.4,0,1.09,1.09,0,0,0,.25-.7A1,1,0,0,0,83,76.36Z"/><path class="cls-2" d="M82.74,80a.71.71,0,0,0-.53-.19.81.81,0,0,0-.52.19.59.59,0,0,0-.21.47V89a.59.59,0,0,0,.21.47.71.71,0,0,0,.52.18,1,1,0,0,0,.53-.18A.59.59,0,0,0,83,89V80.47A.59.59,0,0,0,82.74,80Z"/><path class="cls-2" d="M79.5,76.36a.59.59,0,0,0-.46-.2.94.94,0,0,0-.86.67l-4.43,11h-.12l-4.38-11-.07-.16a.73.73,0,0,0-.32-.33.91.91,0,0,0-.47-.16.59.59,0,0,0-.47.21.68.68,0,0,0-.18.56,2.28,2.28,0,0,0,.18.68l4.66,11.6a1.47,1.47,0,0,0,.45.54,1.25,1.25,0,0,0,.67.18,1.11,1.11,0,0,0,.7-.23,1.35,1.35,0,0,0,.44-.54L79.5,77.6l.19-.68A.83.83,0,0,0,79.5,76.36Z"/><path class="cls-2" d="M60,80.72a4.35,4.35,0,0,0-3.1-1.12,3.24,3.24,0,0,0-1.07.17,6,6,0,0,0-.84.35,3.91,3.91,0,0,0-.58.46A4.12,4.12,0,0,0,54,81l-.12.17h-.09V76.55a.56.56,0,0,0-.21-.46.63.63,0,0,0-.51-.19.81.81,0,0,0-.52.19.56.56,0,0,0-.21.46V89a.59.59,0,0,0,.21.47.83.83,0,0,0,1,0,.59.59,0,0,0,.21-.47V83.52a2.34,2.34,0,0,1,.86-1.8A3.26,3.26,0,0,1,56.88,81a2.93,2.93,0,0,1,2,.75,2.37,2.37,0,0,1,.79,1.82V89a.67.67,0,0,0,.72.65.86.86,0,0,0,.52-.18.71.71,0,0,0,.21-.47V83.52A3.66,3.66,0,0,0,60,80.72Z"/><path class="cls-2" d="M48.19,80.75a4.07,4.07,0,0,0-2.94-1.15,4.68,4.68,0,0,0-2.75.8c-.76.51-1.14,1-1.14,1.39a.92.92,0,0,0,.19.56.59.59,0,0,0,.47.21.76.76,0,0,0,.58-.25A3.35,3.35,0,0,1,45.25,81a2.63,2.63,0,0,1,1.91.74,2.56,2.56,0,0,1,.77,1.82v.28h-3a5,5,0,0,0-3.12.84,2.6,2.6,0,0,0-1.07,2.19,2.69,2.69,0,0,0,1,2.19,4.62,4.62,0,0,0,3,.84,4.18,4.18,0,0,0,1.17-.16,6.72,6.72,0,0,0,.88-.35,3.1,3.1,0,0,0,.61-.47,3.23,3.23,0,0,0,.37-.37l.12-.17h.09V89a.59.59,0,0,0,.21.47.7.7,0,0,0,.51.18.83.83,0,0,0,.51-.18.59.59,0,0,0,.21-.47V83.52A3.64,3.64,0,0,0,48.19,80.75ZM48,86a2.33,2.33,0,0,1-.89,1.82,3.8,3.8,0,0,1-2.35.72,3,3,0,0,1-1.84-.47,1.51,1.51,0,0,1,0-2.47,3.29,3.29,0,0,1,2-.46H48Z"/><path class="cls-2" d="M37.75,80.79a4.5,4.5,0,0,0-3.21-1.19,4.71,4.71,0,0,0-1.12.14,3.34,3.34,0,0,0-.84.35,2.46,2.46,0,0,0-.56.45,2.28,2.28,0,0,0-.35.34l-.09.17h-.1V76.57a.57.57,0,0,0-.21-.46.76.76,0,0,0-1,0,.51.51,0,0,0-.19.46V85.8a3.87,3.87,0,0,0,1.26,2.91,4.47,4.47,0,0,0,3.22,1.19,4.46,4.46,0,0,0,3.21-1.19A3.84,3.84,0,0,0,39,85.8V83.7A3.87,3.87,0,0,0,37.75,80.79Zm-.16,5a2.52,2.52,0,0,1-.86,2,3.2,3.2,0,0,1-2.19.79,3.16,3.16,0,0,1-2.19-.79,2.6,2.6,0,0,1-.87-2V83.7a2.52,2.52,0,0,1,.87-2,3,3,0,0,1,2.19-.8,3.16,3.16,0,0,1,2.19.8,2.58,2.58,0,0,1,.86,2Z"/><path class="cls-2" d="M25.61,77.44a5.69,5.69,0,0,0-4.12-1.52,5.72,5.72,0,0,0-4.13,1.52,5.18,5.18,0,0,0-1.58,3.89v3.24a5.19,5.19,0,0,0,1.58,3.89A5.75,5.75,0,0,0,21.49,90a5.73,5.73,0,0,0,4.12-1.51,5.16,5.16,0,0,0,1.59-3.89V81.33A5.15,5.15,0,0,0,25.61,77.44Zm.07,7.1a3.87,3.87,0,0,1-1.16,2.87,4.15,4.15,0,0,1-3,1.14,4.06,4.06,0,0,1-3-1.14,3.87,3.87,0,0,1-1.16-2.87V81.3a3.83,3.83,0,0,1,1.16-2.86,4.14,4.14,0,0,1,3-1.14,4.15,4.15,0,0,1,3,1.14,3.83,3.83,0,0,1,1.16,2.86Z"/><path class="cls-3" d="M96.86,68a.83.83,0,0,0-.28.28C92.9,70.1,92.23,65,91.76,63.11,91,60.2,87.61,57.36,85,58.33l-.14.91c1.59,1.52,4.55,6.5,3.15,8.32-2.4,3.1-2.29-1.51-2.8-3-1.84-5.5-9.55,1-4.38,4.78a21.35,21.35,0,0,0-4.84.23c-.14,0-.28.07-.28.23a.28.28,0,0,0,.28.28A19,19,0,0,1,82,70a9.42,9.42,0,0,0,1.14.47.54.54,0,0,0,.3-1c-7-2.61-.55-8.53.8-4.52.3.93,1,8.06,4.7,3.31,1.68-2.17-.58-6.55-2.4-8.85,6.36.49,2.64,12.88,10.56,10C98.54,68.75,98,67.49,96.86,68Z"/><path class="cls-3" d="M84.28,44.58c-.61-3.51,0-4.31-5.06-4.7a4.9,4.9,0,0,0-1-.11.78.78,0,0,0-.53.19l0,0a.52.52,0,0,0-.16.37.55.55,0,0,0,.16.38h0a.78.78,0,0,0,.55.21h.13a3.88,3.88,0,0,1,3.11,3.48c-4.45-2.28-11.88,3.92-5.49,2.63.74-.14,3.89-.53,4.17.73a.54.54,0,0,0,1.07-.19c-.51-2.38-4-1.79-5.83-1.47,1.47-.86,4.36-1.58,5.69-.74,2.24,1.39,1.7-2.17,0-4.24,1.1.18,2,.6,2.22,1.91.76,5.66.07,1.51,4,2.26,2.7.51,3.4,1.7,3.63,3.24A4.11,4.11,0,0,0,86,46.82c-2.84.79,2.42,2.21.65,6-.28-1.8-.75-3.73-2.8-4.11C79.48,48,76.06,52.09,73.59,57A30.34,30.34,0,0,0,62.8,48.15C53.18,44,43.72,48.69,44.09,59c.3,8.57,7,11.56,14.3,13V72a.47.47,0,1,0,.1-.93C51.75,69.63,45.32,67,45,58.91,44.65,49.24,53.43,45.1,62.36,49a29.75,29.75,0,0,1,10.69,9,62.35,62.35,0,0,0-3.82,11.35c-1.21,5.35,6.55-.14,7-1.22,1.42-3.1.27-6.75-2-10.16.68-1.49,1.24-2.65,1.49-3.07,1.68-2.7,8.09-7.88,9.37-3.59.42,1.4.16,3.31,1,3.59a4.15,4.15,0,0,0,.51-6.78s-.18-.14-.3-.26c.89-.16,3.12.35,3.43.89,0,0,1.84,5.36,2.26,2.7C92.88,45.82,87.91,42.79,84.28,44.58ZM75.38,67.7c-.58,1.28-4.52,2.86-5.31,3C69.76,69.1,72,63.25,73.8,59.1,75.68,62,76.57,65.13,75.38,67.7Z"/><path class="cls-3" d="M71,15.06A34,34,0,0,0,41.85,66.44h1.07a33,33,0,1,1,56.13,0h1.07A34,34,0,0,0,71,15.06Z"/></svg>