<!DOCTYPE svg PUBLIC "-//W3C//DTD SVG 1.1//EN" "http://www.w3.org/Graphics/SVG/1.1/DTD/svg11.dtd">
<!-- Uploaded to: SVG Repo, www.svgrepo.com, Transformed by: SVG Repo Mixer Tools -->
<svg fill="#2C3F58" height="64px" width="64px" version="1.1" id="Layer_1" xmlns="http://www.w3.org/2000/svg" xmlns:xlink="http://www.w3.org/1999/xlink" viewBox="0 0 511.999 511.999" xml:space="preserve" stroke="#2C3F58">
<g id="SVGRepo_bgCarrier" stroke-width="0"/>
<g id="SVGRepo_tracerCarrier" stroke-linecap="round" stroke-linejoin="round"/>
<g id="SVGRepo_iconCarrier"> <g> <g> <path d="M472.011,69.081c-18.061,0-33.355,12.038-38.302,28.51h-6.992v-7.198c0-24.112-18.729-43.701-42.738-44.85 c-0.135-0.01-0.272-0.018-0.41-0.024c-0.049-0.002-0.099-0.007-0.148-0.009c-0.013,0-0.025,0-0.038,0 c-0.014,0-0.026-0.002-0.039-0.003c-0.515-0.02-1.03-0.034-1.551-0.034H130.205c-24.77,0-44.923,20.152-44.923,44.923v7.198H78.29 c-4.946-16.472-20.241-28.51-38.302-28.51C17.939,69.081,0,87.02,0,109.07s17.939,39.989,39.989,39.989 c18.061,0,33.355-12.038,38.302-28.51h6.992v233.403v101.097c0,6.339,5.139,11.479,11.479,11.479h254.022 c6.34,0,11.479-5.14,11.479-11.479v-61.488h52.976c6.34,0,11.479-5.14,11.479-11.479V120.549h6.992 c4.946,16.472,20.241,28.51,38.302,28.51c22.05,0,39.989-17.939,39.989-39.989C511.999,87.02,494.061,69.081,472.011,69.081z M39.989,126.1c-9.391,0-17.031-7.64-17.031-17.031c0-9.391,7.64-17.031,17.031-17.031s17.031,7.64,17.031,17.031 C57.02,118.46,49.38,126.1,39.989,126.1z M339.305,443.57H108.24v-78.139h20.12v15.366c0,6.339,5.139,11.479,11.479,11.479 c6.34,0,11.479-5.14,11.479-11.479v-15.366h187.987V443.57z M340.021,82.415c-0.042,0.235-0.076,0.472-0.115,0.708 c-0.114,0.705-0.216,1.412-0.296,2.127c-0.065,0.569-0.122,1.142-0.166,1.717c-0.021,0.282-0.041,0.566-0.056,0.849 c-0.049,0.854-0.083,1.71-0.083,2.575v0.001v252.08H151.318V133.498c0-6.339-5.139-11.479-11.479-11.479 c-6.34,0-11.479,5.14-11.479,11.479v208.975h-20.12V90.393c0-12.111,9.853-21.965,21.965-21.965h214.773 C342.594,72.703,340.907,77.417,340.021,82.415z M403.76,370.602h-41.497v-16.65v-0.001V120.549h41.497V370.602z M403.76,97.591 h-41.497v-7.198c0-0.693,0.038-1.376,0.1-2.052c0.032-0.346,0.088-0.685,0.137-1.026c0.042-0.308,0.08-0.616,0.135-0.919 c0.086-0.461,0.192-0.917,0.306-1.369c0.039-0.156,0.075-0.313,0.117-0.468c0.149-0.538,0.317-1.07,0.505-1.592 c0.015-0.044,0.03-0.086,0.046-0.13c2.138-5.812,6.677-10.535,12.52-12.849c0.088-0.034,0.176-0.071,0.264-0.104 c0.475-0.181,0.961-0.341,1.452-0.49c0.176-0.053,0.352-0.103,0.529-0.152c0.437-0.121,0.88-0.227,1.328-0.32 c0.316-0.065,0.635-0.124,0.956-0.177c0.253-0.041,0.505-0.088,0.758-0.121c0.553-0.07,1.116-0.114,1.682-0.142 c11.626,0.67,20.662,10.201,20.662,21.913V97.591z M472.011,126.1c-9.391,0-17.031-7.64-17.031-17.031 c0-9.391,7.64-17.031,17.031-17.031s17.031,7.64,17.031,17.031C489.042,118.46,481.402,126.1,472.011,126.1z"/> </g> </g> <g> <g> <path d="M151.095,412.982c-0.149-0.722-0.367-1.444-0.654-2.145c-0.287-0.689-0.643-1.354-1.056-1.974 c-0.425-0.631-0.895-1.218-1.435-1.746c-0.528-0.528-1.113-1.01-1.733-1.435c-0.631-0.412-1.297-0.769-1.986-1.056 s-1.412-0.504-2.147-0.653c-1.481-0.3-3.007-0.3-4.488,0c-0.735,0.149-1.458,0.366-2.147,0.653 c-0.689,0.287-1.355,0.644-1.986,1.056c-0.62,0.425-1.217,0.907-1.745,1.435c-0.528,0.528-1.01,1.115-1.423,1.746 c-0.413,0.62-0.769,1.286-1.056,1.974c-0.287,0.7-0.505,1.423-0.654,2.147c-0.149,0.746-0.218,1.504-0.218,2.25 c0,3.019,1.217,5.981,3.352,8.116c0.528,0.528,1.125,1.01,1.745,1.423c0.631,0.412,1.297,0.769,1.986,1.056 c0.689,0.287,1.412,0.504,2.147,0.653c0.746,0.149,1.492,0.23,2.238,0.23c3.03,0,5.992-1.228,8.116-3.363 c2.146-2.135,3.375-5.097,3.375-8.116C151.325,414.486,151.244,413.728,151.095,412.982z"/> </g> </g> </g>
</svg>