<!DOCTYPE svg PUBLIC "-//W3C//DTD SVG 1.1//EN" "http://www.w3.org/Graphics/SVG/1.1/DTD/svg11.dtd">
<!-- Uploaded to: SVG Repo, www.svgrepo.com, Transformed by: SVG Repo Mixer Tools -->
<svg fill="#2C3F58" height="800px" width="800px" version="1.1" id="Layer_1" xmlns="http://www.w3.org/2000/svg" xmlns:xlink="http://www.w3.org/1999/xlink" viewBox="0 0 512.002 512.002" xml:space="preserve">
<g id="SVGRepo_bgCarrier" stroke-width="0"/>
<g id="SVGRepo_tracerCarrier" stroke-linecap="round" stroke-linejoin="round"/>
<g id="SVGRepo_iconCarrier"> <g> <g> <path d="M102.341,145.912c-28.783,0-52.2,23.416-52.2,52.2s23.416,52.2,52.2,52.2s52.201-23.416,52.201-52.2 S131.124,145.912,102.341,145.912z M102.341,229.912c-17.534,0-31.801-14.266-31.801-31.801c0-17.535,14.266-31.801,31.801-31.801 c17.536,0,31.802,14.266,31.802,31.801S119.877,229.912,102.341,229.912z"/> </g> </g> <g> <g> <path d="M509.005,115.853l-92.14-91.918c-3.98-3.972-10.427-3.972-14.406,0l-92.141,91.918c-2.922,2.915-3.799,7.304-2.222,11.118 c1.578,3.815,5.297,6.302,9.425,6.302h6.648v83.399c-0.018,0.016-0.039,0.031-0.057,0.048c-1.567,0.98-14.758,8.072-68.111,8.072 c-53.3,0-66.592-7.143-68.168-8.127v-83.392h6.648c4.128,0,7.847-2.488,9.425-6.302c1.577-3.814,0.701-8.203-2.222-11.118 l-92.141-91.918c-3.98-3.972-10.427-3.972-14.406,0l-92.14,91.918c-2.922,2.915-3.799,7.304-2.222,11.118 c1.578,3.815,5.297,6.302,9.425,6.302h6.647v337.375h-3.63c-5.632,0-10.199,4.566-10.199,10.199 c0,5.633,4.567,10.199,10.199,10.199h27.658c5.632,0,10.199-4.566,10.199-10.199c0-5.633-4.567-10.199-10.199-10.199h-3.631 V283.604h27.749v197.243c0,5.633,4.567,10.199,10.199,10.199s10.199-4.566,10.199-10.199v-37.948h33.895v37.948 c0,5.633,4.567,10.199,10.199,10.199c5.632,0,10.199-4.566,10.199-10.199V283.604h27.748v187.044h-3.63 c-5.632,0-10.199,4.566-10.199,10.199c0,5.633,4.567,10.199,10.199,10.199h27.658c5.632,0,10.199-4.566,10.199-10.199 c0-5.633-4.567-10.199-10.199-10.199h-3.631V286.094c11.766,3.543,32.313,6.73,68.168,6.73c35.628,0,56.245-3.024,68.168-6.613 v184.437h-3.631c-5.632,0-10.199,4.566-10.199,10.199c0,5.633,4.567,10.199,10.199,10.199h27.658 c5.632,0,10.199-4.566,10.199-10.199c0-5.633-4.567-10.199-10.199-10.199h-3.63V283.604h27.748v197.243 c0,5.633,4.567,10.199,10.199,10.199s10.199-4.566,10.199-10.199v-37.948h33.895v37.948c0,5.633,4.567,10.199,10.199,10.199 c5.632,0,10.199-4.566,10.199-10.199V283.604h27.749v132.524c0,5.633,4.567,10.199,10.199,10.199s10.199-4.566,10.199-10.199 V133.273h0.006h6.646c4.128,0,7.847-2.488,9.425-6.302C512.805,123.156,511.928,118.767,509.005,115.853z M119.289,422.501H85.394 v-19.554h33.895V422.501z M119.289,382.548H85.394v-19.553h33.895V382.548z M119.289,342.597H85.394v-19.553h33.895V342.597z M119.289,302.645H85.394v-19.041h33.895V302.645z M167.435,263.207H37.246V133.273h130.189V263.207z M34.867,112.873 l67.474-67.313l67.475,67.313H34.867z M205.85,269.309c-12.718-2.057-17.148-4.468-18.017-5.011v-25.84 c4.56,1.374,10.439,2.694,18.017,3.794V269.309z M245.803,272.332c-7.382-0.138-13.868-0.423-19.554-0.808v-27.212 c5.862,0.38,12.356,0.652,19.554,0.783V272.332z M285.755,271.531c-5.684,0.381-12.17,0.664-19.554,0.802V245.1 c7.189-0.128,13.687-0.388,19.554-0.758V271.531z M324.17,264.306c-0.018,0.016-0.039,0.031-0.057,0.048 c-0.863,0.54-5.26,2.935-17.96,4.978v-27c7.536-1.074,13.423-2.372,18.017-3.755V264.306z M426.61,422.501h-33.895v-19.554h33.895 V422.501z M426.61,382.548h-33.895v-19.553h33.895V382.548z M426.611,342.597h-33.895v-19.553h33.895V342.597z M426.611,302.645 h-33.895v-19.041h33.895V302.645z M344.569,263.205V133.273h130.189v129.933H344.569z M342.188,112.873l67.475-67.313 l67.474,67.313H342.188z"/> </g> </g> <g> <g> <path d="M409.663,145.912c-28.783,0-52.201,23.416-52.201,52.2s23.418,52.2,52.201,52.2c28.783,0,52.2-23.416,52.2-52.2 S438.446,145.912,409.663,145.912z M409.663,229.912c-17.535,0-31.802-14.266-31.802-31.801s14.267-31.801,31.802-31.801 c17.534,0,31.801,14.266,31.801,31.801S427.199,229.912,409.663,229.912z"/> </g> </g> <g> <g> <path d="M484.958,436.527c-5.632,0-10.199,4.566-10.199,10.199v4.08c0,5.633,4.567,10.199,10.199,10.199 s10.199-4.566,10.199-10.199v-4.08C495.157,441.093,490.59,436.527,484.958,436.527z"/> </g> </g> <g> <g> <path d="M498.786,470.648h-27.658c-5.632,0-10.199,4.566-10.199,10.199c0,5.633,4.567,10.199,10.199,10.199h27.658 c5.632,0,10.199-4.566,10.199-10.199C508.985,475.214,504.419,470.648,498.786,470.648z"/> </g> </g> </g>
</svg>