<svg id="Camada_1" data-name="Camada 1" xmlns="http://www.w3.org/2000/svg" viewBox="0 0 142 142"><defs><style>.cls-1{fill:#145163;}.cls-2{fill:#fff;fill-rule:evenodd;}</style></defs><title>logo-green</title><path class="cls-1" d="M0,0H142a0,0,0,0,1,0,0V119.4A22.6,22.6,0,0,1,119.4,142H0a0,0,0,0,1,0,0V0A0,0,0,0,1,0,0Z"/><path class="cls-2" d="M123.56,103.65a.65.65,0,0,0,.65-.61v-1A3.75,3.75,0,0,0,123,99.2a4.78,4.78,0,0,0-6.2,0,3.75,3.75,0,0,0-1.21,2.81v2a3.69,3.69,0,0,0,1.21,2.81A4.65,4.65,0,0,0,120,108a4.76,4.76,0,0,0,2.83-.85c.81-.57,1.21-1.08,1.21-1.53a.94.94,0,0,0-.18-.54.58.58,0,0,0-.45-.2.64.64,0,0,0-.56.27,3.48,3.48,0,0,1-2.85,1.55,3.2,3.2,0,0,1-2.18-.77A2.5,2.5,0,0,1,117,104v-.36Zm-5.75-3.55a3.27,3.27,0,0,1,4.22,0,2.5,2.5,0,0,1,.83,1.89v.36H117l0-.36A2.43,2.43,0,0,1,117.81,100.1Z"/><path class="cls-2" d="M113,98.42a.72.72,0,0,0-.49-.18.77.77,0,0,0-.5.18.58.58,0,0,0-.2.45v.65h-.09l-.27-.36a3.18,3.18,0,0,0-1-.74,3.12,3.12,0,0,0-1.59-.36,4.34,4.34,0,0,0-3.1,1.14A3.72,3.72,0,0,0,104.5,102v1.66a3.72,3.72,0,0,0,1.21,2.81,4.44,4.44,0,0,0,3.12,1.12,3.67,3.67,0,0,0,1.08-.16,2.71,2.71,0,0,0,.79-.33,5.93,5.93,0,0,0,.56-.43,2,2,0,0,0,.31-.34l.11-.13h.09v1.55a2.43,2.43,0,0,1-.85,1.88,3,3,0,0,1-2.18.77,3.48,3.48,0,0,1-2.85-1.58.66.66,0,0,0-.54-.26.55.55,0,0,0-.45.2.7.7,0,0,0-.18.54c0,.44.41,1,1.22,1.52a4.67,4.67,0,0,0,2.82.86,4.57,4.57,0,0,0,3.19-1.13,3.61,3.61,0,0,0,1.21-2.8V98.87A.55.55,0,0,0,113,98.42Zm-1.23,5.23a2.41,2.41,0,0,1-.83,1.88,3.24,3.24,0,0,1-4.22,0,2.48,2.48,0,0,1-.83-1.88V102a2.4,2.4,0,0,1,.83-1.89,3.09,3.09,0,0,1,2.13-.76,3,3,0,0,1,2.09.74,2.25,2.25,0,0,1,.83,1.73Z"/><path class="cls-2" d="M101,99.14a3.92,3.92,0,0,0-2.87-1.08,4.37,4.37,0,0,0-2.65.76c-.74.49-1.1.94-1.1,1.35a.88.88,0,0,0,.18.54.58.58,0,0,0,.45.2.75.75,0,0,0,.56-.27,3.26,3.26,0,0,1,2.56-1.28,2.61,2.61,0,0,1,1.84.72,2.45,2.45,0,0,1,.74,1.75v.27H97.83a4.82,4.82,0,0,0-3,.81,2.53,2.53,0,0,0-1,2.11,2.58,2.58,0,0,0,1,2.11,4.44,4.44,0,0,0,2.85.81,3.84,3.84,0,0,0,1.12-.16,5.3,5.3,0,0,0,.86-.34,3.48,3.48,0,0,0,.58-.45,1.65,1.65,0,0,0,.34-.36l.11-.15h.09v.65a.59.59,0,0,0,.2.45.71.71,0,0,0,.49.18.93.93,0,0,0,.52-.18.67.67,0,0,0,.2-.45v-5.32A3.51,3.51,0,0,0,101,99.14Zm-.29,5.09A2.25,2.25,0,0,1,99.9,106a3.61,3.61,0,0,1-2.27.7,3,3,0,0,1-1.78-.45,1.46,1.46,0,0,1-.6-1.19,1.41,1.41,0,0,1,.63-1.19,3.13,3.13,0,0,1,1.93-.45h2.94Z"/><path class="cls-2" d="M91.39,94.67a.62.62,0,0,0-.52-.18.72.72,0,0,0-.49.18.55.55,0,0,0-.21.45v12a.57.57,0,0,0,.21.45.68.68,0,0,0,.49.18.93.93,0,0,0,.52-.18.59.59,0,0,0,.2-.45v-12A.58.58,0,0,0,91.39,94.67Z"/><path class="cls-2" d="M86.9,94.67a.62.62,0,0,0-.52-.18.72.72,0,0,0-.49.18.55.55,0,0,0-.21.45v12a.57.57,0,0,0,.21.45.68.68,0,0,0,.49.18.93.93,0,0,0,.52-.18.67.67,0,0,0,.2-.45v-12A.58.58,0,0,0,86.9,94.67Z"/><path class="cls-2" d="M82.54,94.91a1,1,0,0,0-1.35,0,1,1,0,0,0-.24.66,1.08,1.08,0,0,0,.24.67.93.93,0,0,0,1.6-.67A1,1,0,0,0,82.54,94.91Z"/><path class="cls-2" d="M82.32,98.42a.69.69,0,0,0-.52-.18.72.72,0,0,0-.49.18.55.55,0,0,0-.21.45v8.26a.57.57,0,0,0,.21.45.68.68,0,0,0,.49.18.93.93,0,0,0,.52-.18.59.59,0,0,0,.2-.45V98.87A.58.58,0,0,0,82.32,98.42Z"/><path class="cls-2" d="M79.19,94.91a.6.6,0,0,0-.44-.2.93.93,0,0,0-.84.65L73.65,106h-.11L69.32,95.39l-.07-.16a.71.71,0,0,0-.32-.32.81.81,0,0,0-.45-.15A.54.54,0,0,0,68,95a.65.65,0,0,0-.18.54,2.1,2.1,0,0,0,.18.65l4.49,11.18a1.4,1.4,0,0,0,.42.52,1.21,1.21,0,0,0,.65.18,1.06,1.06,0,0,0,.68-.23,1.3,1.3,0,0,0,.42-.51L79.19,96.1l.18-.65A.77.77,0,0,0,79.19,94.91Z"/><path class="cls-2" d="M60.38,99.11a4.16,4.16,0,0,0-3-1.08,3.26,3.26,0,0,0-1,.16,5.59,5.59,0,0,0-.81.34A3.56,3.56,0,0,0,55,99c-.11.11-.22.22-.34.36l-.11.15h-.09v-4.4a.59.59,0,0,0-.2-.45.57.57,0,0,0-.49-.17.82.82,0,0,0-.5.17.59.59,0,0,0-.2.45v12a.59.59,0,0,0,.2.45.83.83,0,0,0,.5.18.78.78,0,0,0,.49-.18.59.59,0,0,0,.2-.45v-5.32a2.25,2.25,0,0,1,.83-1.73,3.07,3.07,0,0,1,2.11-.74,2.75,2.75,0,0,1,2,.72,2.27,2.27,0,0,1,.76,1.75v5.32a.59.59,0,0,0,.2.45.64.64,0,0,0,.5.18.78.78,0,0,0,.49-.18.67.67,0,0,0,.2-.45v-5.32A3.49,3.49,0,0,0,60.38,99.11Z"/><path class="cls-2" d="M49,99.14A3.88,3.88,0,0,0,46.19,98a4.49,4.49,0,0,0-2.65.77c-.74.49-1.1.94-1.1,1.35a.89.89,0,0,0,.18.53.55.55,0,0,0,.45.21.72.72,0,0,0,.56-.25,3.26,3.26,0,0,1,2.56-1.28,2.59,2.59,0,0,1,1.84.72,2.45,2.45,0,0,1,.74,1.75v.27H45.83a4.82,4.82,0,0,0-3,.81,2.53,2.53,0,0,0-1,2.11,2.62,2.62,0,0,0,1,2.11,4.42,4.42,0,0,0,2.85.81,3.84,3.84,0,0,0,1.12-.16,5.2,5.2,0,0,0,.85-.34,2.63,2.63,0,0,0,.59-.45,2.45,2.45,0,0,0,.36-.36l.11-.15h.09v.65a.59.59,0,0,0,.2.45.72.72,0,0,0,.5.18.8.8,0,0,0,.49-.18.59.59,0,0,0,.2-.45v-5.32A3.54,3.54,0,0,0,49,99.14Zm-.23,5.07a2.25,2.25,0,0,1-.85,1.75,3.63,3.63,0,0,1-2.27.7,3,3,0,0,1-1.77-.45,1.47,1.47,0,0,1-.61-1.19,1.44,1.44,0,0,1,.63-1.19,3.1,3.1,0,0,1,1.93-.45h2.94Z"/><path class="cls-2" d="M39,99.18A4.35,4.35,0,0,0,35.86,98a4.45,4.45,0,0,0-1.08.14,3.05,3.05,0,0,0-.8.34,2.29,2.29,0,0,0-.54.42,2.72,2.72,0,0,0-.34.34l-.09.16h-.09V95.12a.58.58,0,0,0-.2-.45.75.75,0,0,0-1,0,.5.5,0,0,0-.18.45V104a3.73,3.73,0,0,0,1.21,2.8,4.75,4.75,0,0,0,6.2,0,3.66,3.66,0,0,0,1.21-2.8v-2A3.68,3.68,0,0,0,39,99.18ZM38.8,104a2.38,2.38,0,0,1-.83,1.88,3,3,0,0,1-2.11.77,3,3,0,0,1-2.11-.77,2.48,2.48,0,0,1-.83-1.88v-2a2.43,2.43,0,0,1,.83-1.89,2.9,2.9,0,0,1,2.11-.76,3,3,0,0,1,2.11.76A2.5,2.5,0,0,1,38.8,102Z"/><path class="cls-2" d="M27.26,96a5.49,5.49,0,0,0-4-1.46,5.51,5.51,0,0,0-4,1.46,5,5,0,0,0-1.52,3.75v3.12a5,5,0,0,0,1.52,3.75,5.56,5.56,0,0,0,4,1.46,5.53,5.53,0,0,0,4-1.46,5,5,0,0,0,1.53-3.75V99.7A5,5,0,0,0,27.26,96Zm.07,6.84a3.76,3.76,0,0,1-1.12,2.77,4,4,0,0,1-2.92,1.1,3.92,3.92,0,0,1-2.9-1.1,3.76,3.76,0,0,1-1.12-2.77V99.67a3.76,3.76,0,0,1,1.12-2.76,4,4,0,0,1,2.9-1.1,4,4,0,0,1,2.92,1.1,3.76,3.76,0,0,1,1.12,2.76Z"/><path class="cls-2" d="M77.38,59.2v0l0,0S77.38,59.19,77.38,59.2Z"/><path class="cls-2" d="M95.92,86.83a.87.87,0,0,0-.27.27c-3.55,1.78-4.2-3.16-4.65-5-.69-2.8-4-5.54-6.51-4.6l-.13.88c1.53,1.45,4.38,6.26,3,8-2.31,3-2.2-1.46-2.69-2.92-1.78-5.3-9.21,1-4.23,4.6a20.48,20.48,0,0,0-4.67.23c-.13,0-.27.07-.27.22a.28.28,0,0,0,.27.27,18.59,18.59,0,0,1,5.75-.09,8.75,8.75,0,0,0,1.1.45.51.51,0,0,0,.61-.33.52.52,0,0,0-.32-.66c-6.71-2.51-.53-8.21.77-4.35.29.9,1,7.77,4.53,3.19,1.62-2.09-.56-6.31-2.31-8.53,6.13.47,2.54,12.41,10.17,9.58C97.54,87.58,97,86.36,95.92,86.83Z"/><path class="cls-2" d="M83.8,64.29c-.59-3.39,0-4.15-4.87-4.54a5.19,5.19,0,0,0-1-.1.79.79,0,0,0-.51.18l0,0a.47.47,0,0,0-.15.35.53.53,0,0,0,.15.36h0a.71.71,0,0,0,.53.21H78a3.73,3.73,0,0,1,3,3.35c-4.29-2.2-11.45,3.77-5.3,2.54.72-.14,3.75-.52,4,.7a.52.52,0,0,0,1-.18c-.5-2.29-3.86-1.73-5.61-1.42,1.41-.83,4.19-1.53,5.47-.72,2.16,1.35,1.64-2.09,0-4.08,1,.18,2,.58,2.13,1.84.74,5.45.07,1.46,3.82,2.18,2.6.49,3.28,1.63,3.5,3.12a4,4,0,0,0-4.65-1.67c-2.74.77,2.34,2.14.63,5.82-.27-1.73-.72-3.59-2.69-4-4.18-.77-7.48,3.21-9.86,8A29,29,0,0,0,63.1,67.72c-9.28-4-18.39.52-18,10.49.29,8.26,6.78,11.14,13.78,12.55v-.09a.47.47,0,0,0,.5-.4.46.46,0,0,0-.41-.5c-6.49-1.34-12.68-3.9-13-11.67-.36-9.32,8.1-13.32,16.7-9.57A28.73,28.73,0,0,1,73,77.18a59.83,59.83,0,0,0-3.69,10.93c-1.16,5.17,6.31-.13,6.78-1.17,1.37-3,.27-6.51-1.93-9.79.65-1.43,1.19-2.56,1.44-3,1.62-2.6,7.79-7.59,9-3.46.4,1.35.15,3.19,1,3.46a4,4,0,0,0,.5-6.53l-.3-.25c.86-.16,3,.34,3.3.85,0,0,1.78,5.17,2.18,2.61C92.08,65.48,87.3,62.56,83.8,64.29ZM75.22,86.56c-.56,1.24-4.36,2.76-5.12,2.85-.29-1.5,1.87-7.14,3.59-11.13C75.51,81.11,76.37,84.09,75.22,86.56Z"/><path class="cls-2" d="M71,35.84A32.74,32.74,0,0,0,42.91,85.35h1a31.82,31.82,0,1,1,54.09,0h1A32.73,32.73,0,0,0,71,35.84Z"/></svg>