<svg id="Camada_1" data-name="Camada 1" xmlns="http://www.w3.org/2000/svg" viewBox="0 0 493 362"><defs><style>.cls-1{fill:#fff;}.cls-1,.cls-2{fill-rule:evenodd;}.cls-2{fill:#105063;}</style></defs><title>logo_obahvillage</title><path class="cls-1" d="M490,320.07a3.06,3.06,0,0,0,3-2.81v-4.79a17.26,17.26,0,0,0-5.62-13q-5.61-5.3-14.35-5.3t-14.36,5.3a17.22,17.22,0,0,0-5.61,13v9.36a16.89,16.89,0,0,0,5.61,13c3.85,3.44,8.84,5.2,14.77,5.2a21.81,21.81,0,0,0,13.11-3.95c3.74-2.6,5.61-5,5.61-7.07a4.24,4.24,0,0,0-.83-2.5,2.63,2.63,0,0,0-2.08-.93,2.88,2.88,0,0,0-2.6,1.25c-3.64,4.78-8,7.17-13.21,7.17a14.78,14.78,0,0,1-10.09-3.53,11.71,11.71,0,0,1-4-8.74v-1.66Zm-26.63-16.44a15.13,15.13,0,0,1,19.56,0,11.62,11.62,0,0,1,3.85,8.74V314H459.61l-.1-1.66A11.23,11.23,0,0,1,463.35,303.63Z"/><path class="cls-1" d="M440.89,295.83a3.57,3.57,0,0,0-4.58,0,2.63,2.63,0,0,0-.93,2.08v3H435l-1.25-1.67a16.37,16.37,0,0,0-12.06-5.09q-8.75,0-14.36,5.3a17.22,17.22,0,0,0-5.61,13v7.7a17.22,17.22,0,0,0,5.61,13c3.75,3.43,8.53,5.2,14.46,5.2a16.53,16.53,0,0,0,5-.73,12.25,12.25,0,0,0,3.64-1.56,24.3,24.3,0,0,0,2.6-2,10.79,10.79,0,0,0,1.46-1.56l.52-.63h.42v7.18a11.34,11.34,0,0,1-4,8.74,14,14,0,0,1-10.09,3.53c-5.09,0-9.56-2.39-13.2-7.28a3.12,3.12,0,0,0-2.5-1.25,2.61,2.61,0,0,0-2.08.94,3.18,3.18,0,0,0-.83,2.49c0,2.09,1.87,4.48,5.61,7.08a22,22,0,0,0,13.11,3.95c6,0,11-1.77,14.77-5.2a16.87,16.87,0,0,0,5.61-13V297.91A2.63,2.63,0,0,0,440.89,295.83Zm-5.72,24.24a11.22,11.22,0,0,1-3.85,8.73,15.09,15.09,0,0,1-19.55,0,11.56,11.56,0,0,1-3.85-8.73v-7.7a11.21,11.21,0,0,1,3.85-8.74,14.58,14.58,0,0,1,9.88-3.53,14.12,14.12,0,0,1,9.67,3.43,10.42,10.42,0,0,1,3.85,8Z"/><path class="cls-1" d="M385.66,299.16a18.38,18.38,0,0,0-13.31-5,20.66,20.66,0,0,0-12.28,3.53c-3.43,2.29-5.09,4.37-5.09,6.24a4.24,4.24,0,0,0,.83,2.5,2.64,2.64,0,0,0,2.08.94,3.46,3.46,0,0,0,2.6-1.25q5-5.92,11.86-5.93a11.93,11.93,0,0,1,8.53,3.33,11.33,11.33,0,0,1,3.43,8.11v1.25H370.79c-6.14,0-10.72,1.25-13.94,3.74a11.68,11.68,0,0,0-4.78,9.78,11.86,11.86,0,0,0,4.68,9.78c3.12,2.49,7.48,3.74,13.21,3.74a17.52,17.52,0,0,0,5.2-.73,25,25,0,0,0,3.95-1.56,17.07,17.07,0,0,0,2.7-2.08,7.6,7.6,0,0,0,1.56-1.66l.52-.73h.42v3a2.63,2.63,0,0,0,.93,2.08,3.16,3.16,0,0,0,2.29.83,4.14,4.14,0,0,0,2.39-.83,3,3,0,0,0,.94-2.08V311.54A16.45,16.45,0,0,0,385.66,299.16Zm-1.35,23.61a10.41,10.41,0,0,1-3.95,8.11,16.67,16.67,0,0,1-10.51,3.23c-3.64,0-6.34-.73-8.22-2.08a6.78,6.78,0,0,1-2.8-5.52,6.59,6.59,0,0,1,2.91-5.51c2-1.45,5-2.18,8.94-2.08h13.63Z"/><path class="cls-1" d="M340.94,278.46a2.9,2.9,0,0,0-2.4-.83,3.61,3.61,0,0,0-2.28.83,2.61,2.61,0,0,0-.94,2.08v55.65a2.61,2.61,0,0,0,.94,2.08,3.12,3.12,0,0,0,2.28.83,4.17,4.17,0,0,0,2.4-.83,2.63,2.63,0,0,0,.93-2.08V280.54A2.63,2.63,0,0,0,340.94,278.46Z"/><path class="cls-1" d="M320.14,278.46a2.9,2.9,0,0,0-2.4-.83,3.61,3.61,0,0,0-2.28.83,2.61,2.61,0,0,0-.94,2.08v55.65a2.61,2.61,0,0,0,.94,2.08,3.12,3.12,0,0,0,2.28.83,4.17,4.17,0,0,0,2.4-.83,3,3,0,0,0,.93-2.08V280.54A2.63,2.63,0,0,0,320.14,278.46Z"/><path class="cls-1" d="M300,279.61a4.27,4.27,0,0,0-7.39,3,4.27,4.27,0,1,0,8.53,0A4.51,4.51,0,0,0,300,279.61Z"/><path class="cls-1" d="M298.92,295.83a3.25,3.25,0,0,0-2.39-.83,3.61,3.61,0,0,0-2.29.83,2.61,2.61,0,0,0-.94,2.08v38.28a2.61,2.61,0,0,0,.94,2.08,3.13,3.13,0,0,0,2.29.83,4.17,4.17,0,0,0,2.39-.83,2.63,2.63,0,0,0,.93-2.08V297.91A2.63,2.63,0,0,0,298.92,295.83Z"/><path class="cls-1" d="M284.46,279.61a2.75,2.75,0,0,0-2.08-.94c-1.66,0-3,1-3.85,3L258.77,331h-.52l-19.55-49.2-.31-.73a3.35,3.35,0,0,0-1.46-1.45,3.82,3.82,0,0,0-2.08-.73,2.63,2.63,0,0,0-2.08.93,3.19,3.19,0,0,0-.83,2.5,9.82,9.82,0,0,0,.83,3l20.8,51.79a6.18,6.18,0,0,0,2,2.39,5.31,5.31,0,0,0,3,.84,4.93,4.93,0,0,0,3.12-1,6.29,6.29,0,0,0,2-2.4l20.8-51.79.83-3A3.63,3.63,0,0,0,284.46,279.61Z"/><path class="cls-1" d="M197.3,299.06c-3.53-3.33-8.11-5-13.83-5a14.83,14.83,0,0,0-4.78.73,29.81,29.81,0,0,0-3.75,1.56,17.69,17.69,0,0,0-2.6,2.08c-.52.52-1,1-1.56,1.67l-.52.72h-.42V280.44a2.63,2.63,0,0,0-.93-2.08,2.73,2.73,0,0,0-2.29-.83,3.65,3.65,0,0,0-2.29.83,2.63,2.63,0,0,0-.93,2.08v55.75a2.63,2.63,0,0,0,.93,2.08,3.57,3.57,0,0,0,4.58,0,2.63,2.63,0,0,0,.93-2.08V311.54a10.42,10.42,0,0,1,3.85-8,14.4,14.4,0,0,1,9.78-3.43,12.94,12.94,0,0,1,9.15,3.32,10.67,10.67,0,0,1,3.54,8.12v24.65a2.63,2.63,0,0,0,.93,2.08,2.79,2.79,0,0,0,2.29.83,3.63,3.63,0,0,0,2.29-.83,3,3,0,0,0,.94-2.08V311.54A16.21,16.21,0,0,0,197.3,299.06Z"/><path class="cls-1" d="M144.67,299.16a18.12,18.12,0,0,0-13.1-5.1,20.64,20.64,0,0,0-12.27,3.54c-3.44,2.29-5.1,4.37-5.1,6.24a4.24,4.24,0,0,0,.83,2.5,2.63,2.63,0,0,0,2.08.93,3.36,3.36,0,0,0,2.6-1.14q5-5.92,11.86-5.93a11.93,11.93,0,0,1,8.53,3.33,11.33,11.33,0,0,1,3.43,8.11v1.25H129.91c-6.14,0-10.72,1.25-13.94,3.74a11.72,11.72,0,0,0-4.79,9.78,12.11,12.11,0,0,0,4.58,9.78c3.12,2.49,7.49,3.74,13.21,3.74a17.43,17.43,0,0,0,5.2-.73,25,25,0,0,0,4-1.56,13.54,13.54,0,0,0,2.71-2.08,13,13,0,0,0,1.66-1.66l.52-.73h.42v3a2.63,2.63,0,0,0,.93,2.08,3.16,3.16,0,0,0,2.29.83,3.65,3.65,0,0,0,2.29-.83,2.64,2.64,0,0,0,.94-2.08V311.54A16.42,16.42,0,0,0,144.67,299.16Zm-1,23.51a10.39,10.39,0,0,1-3.95,8.11,16.84,16.84,0,0,1-10.5,3.22c-3.64,0-6.35-.73-8.22-2.08a6.75,6.75,0,0,1-2.81-5.51,6.59,6.59,0,0,1,2.91-5.51c2-1.46,5-2.19,8.95-2.08h13.62Z"/><path class="cls-1" d="M98.08,299.37q-5.62-5.31-14.35-5.31a20.39,20.39,0,0,0-5,.63A14.32,14.32,0,0,0,75,296.25a11.82,11.82,0,0,0-2.5,2,11.47,11.47,0,0,0-1.56,1.56l-.41.73H70.1v-20a2.63,2.63,0,0,0-.93-2.08,3.49,3.49,0,0,0-4.58,0,2.23,2.23,0,0,0-.83,2.08v41.19a17.22,17.22,0,0,0,5.61,13Q75,340,83.73,340t14.35-5.3a17.26,17.26,0,0,0,5.62-13v-9.36A17.26,17.26,0,0,0,98.08,299.37Zm-.73,22.36a11.21,11.21,0,0,1-3.85,8.74A14,14,0,0,1,83.73,334,14,14,0,0,1,74,330.47a11.58,11.58,0,0,1-3.85-8.74v-9.36A11.24,11.24,0,0,1,74,303.63a13.55,13.55,0,0,1,9.78-3.53,14,14,0,0,1,9.77,3.53,11.58,11.58,0,0,1,3.85,8.74Z"/><path class="cls-1" d="M43.89,284.39c-4.68-4.47-10.82-6.76-18.41-6.76s-13.73,2.29-18.41,6.76S0,294.69,0,301.76v14.46c0,7.07,2.39,12.89,7.07,17.37s10.82,6.76,18.41,6.76,13.73-2.29,18.41-6.76S51,323.29,51,316.22V301.76C51,294.69,48.57,288.86,43.89,284.39Zm.31,31.72a17.3,17.3,0,0,1-5.2,12.8c-3.53,3.43-8,5.09-13.52,5.09s-10-1.66-13.42-5.09a17.37,17.37,0,0,1-5.2-12.8V301.66a17.37,17.37,0,0,1,5.2-12.8,18.54,18.54,0,0,1,13.42-5.09c5.51,0,10,1.66,13.52,5.09a17.3,17.3,0,0,1,5.2,12.8Z"/><path class="cls-2" d="M276,114.15l-.05.1.15-.15Z"/><path class="cls-1" d="M362,242.18a3.56,3.56,0,0,0-1.25,1.25c-16.43,8.21-19.45-14.67-21.53-23-3.23-13-18.51-25.69-30.16-21.32l-.63,4.06c7.08,6.76,20.28,29,14,37.13-10.71,13.83-10.19-6.76-12.48-13.52-8.21-24.55-42.64,4.47-19.55,21.32-7.07-.63-12.27-.11-21.63,1-.63.1-1.25.31-1.25,1a1.26,1.26,0,0,0,1.25,1.25c11.44-1.36,16.43-1.88,26.62-.42a43.59,43.59,0,0,0,5.1,2.08,2.39,2.39,0,0,0,1.35-4.58c-31.1-11.64-2.5-38.06,3.54-20.17,1.35,4.16,4.57,36,21,14.77,7.48-9.68-2.6-29.23-10.72-39.53,28.4,2.19,11.76,57.52,47.12,44.41C369.44,245.61,366.84,240,362,242.18Z"/><path class="cls-1" d="M305.78,137.74c-2.7-15.71.21-19.24-22.57-21a23.34,23.34,0,0,0-4.7-.49,3.56,3.56,0,0,0-2.37.86l-.15.15a2.37,2.37,0,0,0-.69,1.64,2.4,2.4,0,0,0,.73,1.68,0,0,0,0,1,0,0,3.52,3.52,0,0,0,2.47,1,3.81,3.81,0,0,0,.59-.05c8,1.44,13.89,9.13,13.89,15.52-19.87-10.19-53,17.47-24.55,11.75,3.33-.62,17.37-2.39,18.62,3.23a2.53,2.53,0,0,0,2.81,2,2.47,2.47,0,0,0,2-2.8c-2.29-10.61-17.89-8-26-6.56,6.56-3.84,19.45-7.07,25.38-3.32,10,6.24,7.59-9.68-.21-18.93,4.89.83,9.16,2.7,9.88,8.53,3.44,25.27.32,6.76,17.69,10.08,12.06,2.29,15.18,7.6,16.22,14.46-4.47-6.76-12-10.4-21.53-7.7-12.69,3.54,10.82,9.89,2.91,26.94-1.24-8-3.32-16.64-12.48-18.3-19.34-3.54-34.63,14.87-45.66,36.82-13.31-17.58-32.86-32.87-48.15-39.53-43-18.61-85.18,2.39-83.52,48.57,1.35,38.28,31.41,51.59,63.86,58.14V260a2.09,2.09,0,0,0,.42-4.16c-30.06-6.24-58.77-18.1-60.12-54.09-1.66-43.16,37.55-61.67,77.38-44.3,14.87,6.55,35,22.36,47.74,40a279.42,279.42,0,0,0-17.06,50.65c-5.4,23.92,29.23-.62,31.41-5.41,6.35-13.83,1.25-30.16-8.94-45.34,3-6.66,5.51-11.86,6.66-13.73,7.48-12.07,36.09-35.16,41.81-16,1.87,6.24.72,14.77,4.47,16,10.4-5.41,12.69-21,2.29-30.27-.21-.21-.83-.62-1.35-1.14,3.95-.73,13.93,1.56,15.28,4,0,0,8.22,23.92,10.09,12.06C344.16,143.25,322,129.73,305.78,137.74ZM266.05,240.92c-2.6,5.72-20.18,12.79-23.71,13.2-1.35-7,8.63-33.07,16.64-51.58C267.4,215.64,271.36,229.47,266.05,240.92Z"/><path class="cls-1" d="M246.5,6C162.77,6,95,73.88,95,157.61a151.46,151.46,0,0,0,21.42,77.69h4.79C78.32,166,99.64,75.13,168.8,32.28S328.87,10.64,371.72,79.91a147.54,147.54,0,0,1,0,155.28h4.79C419.36,163.33,396,70.24,324,27.39A150.14,150.14,0,0,0,246.5,6Z"/></svg>