<svg id="Camada_1" data-name="Camada 1" xmlns="http://www.w3.org/2000/svg" xmlns:xlink="http://www.w3.org/1999/xlink" viewBox="0 0 142 142"><defs><style>.cls-1{fill:url(#Gradiente_sem_nome_11);}.cls-2,.cls-3{fill:#fff;fill-rule:evenodd;}.cls-3{stroke:#fff;stroke-miterlimit:10;stroke-width:0.25px;}</style><linearGradient id="Gradiente_sem_nome_11" x1="70.68" y1="148.68" x2="70.68" y2="-5" gradientUnits="userSpaceOnUse"><stop offset="0" stop-color="#1a5a68" stop-opacity="0.9"/><stop offset="1" stop-color="#145163"/></linearGradient></defs><title>logotype</title><rect class="cls-1" x="-9" y="-5" width="159.37" height="153.68"/><path class="cls-2" d="M125.54,102a.69.69,0,0,0,.68-.63v-1.07A3.84,3.84,0,0,0,125,97.4a4.94,4.94,0,0,0-6.43,0,3.84,3.84,0,0,0-1.26,2.91v2.1a3.78,3.78,0,0,0,1.26,2.91,4.81,4.81,0,0,0,3.31,1.16,4.86,4.86,0,0,0,2.93-.88c.84-.58,1.26-1.12,1.26-1.59a1,1,0,0,0-.18-.55.59.59,0,0,0-.47-.21.63.63,0,0,0-.58.28,3.62,3.62,0,0,1-3,1.6,3.26,3.26,0,0,1-2.26-.79,2.62,2.62,0,0,1-.89-2V102Zm-6-3.68a3.39,3.39,0,0,1,4.38,0,2.59,2.59,0,0,1,.86,2v.37h-6.08l0-.37A2.49,2.49,0,0,1,119.58,98.33Z"/><path class="cls-2" d="M114.55,96.58a.83.83,0,0,0-1,0,.59.59,0,0,0-.21.47v.67h-.09l-.28-.37a3.32,3.32,0,0,0-1-.77,3.47,3.47,0,0,0-1.65-.37A4.51,4.51,0,0,0,107,97.4a3.87,3.87,0,0,0-1.26,2.91V102A3.91,3.91,0,0,0,107,105a4.59,4.59,0,0,0,3.24,1.16,3.66,3.66,0,0,0,1.12-.16,2.76,2.76,0,0,0,.81-.35,6.46,6.46,0,0,0,.59-.44,2.66,2.66,0,0,0,.32-.35l.12-.14h.09v1.6a2.54,2.54,0,0,1-.88,2,3.13,3.13,0,0,1-2.26.79,3.58,3.58,0,0,1-3-1.63.72.72,0,0,0-.56-.28.59.59,0,0,0-.47.21.69.69,0,0,0-.18.56c0,.47.41,1,1.25,1.59a4.91,4.91,0,0,0,2.94.88,4.74,4.74,0,0,0,3.31-1.16,3.81,3.81,0,0,0,1.26-2.92V97.05A.59.59,0,0,0,114.55,96.58ZM113.26,102a2.49,2.49,0,0,1-.86,2,3.39,3.39,0,0,1-4.38,0,2.59,2.59,0,0,1-.86-2v-1.72a2.52,2.52,0,0,1,.86-2,3.23,3.23,0,0,1,2.22-.79,3.09,3.09,0,0,1,2.16.77,2.31,2.31,0,0,1,.86,1.79Z"/><path class="cls-2" d="M102.17,97.33a4.08,4.08,0,0,0-3-1.12,4.65,4.65,0,0,0-2.75.79c-.77.51-1.14,1-1.14,1.4a.92.92,0,0,0,.19.56.57.57,0,0,0,.46.21.79.79,0,0,0,.59-.28,3.35,3.35,0,0,1,2.65-1.33,2.68,2.68,0,0,1,1.91.75,2.52,2.52,0,0,1,.77,1.81v.28h-3a5,5,0,0,0-3.12.84,2.62,2.62,0,0,0-1.07,2.19,2.66,2.66,0,0,0,1,2.19,4.6,4.6,0,0,0,3,.84,4.11,4.11,0,0,0,1.16-.16,6.85,6.85,0,0,0,.89-.35,3.36,3.36,0,0,0,.6-.47,1.53,1.53,0,0,0,.35-.37l.12-.16h.09v.67a.59.59,0,0,0,.21.47.7.7,0,0,0,.51.18,1,1,0,0,0,.54-.18.67.67,0,0,0,.21-.47V100.1A3.68,3.68,0,0,0,102.17,97.33Zm-.3,5.29a2.3,2.3,0,0,1-.88,1.81,3.73,3.73,0,0,1-2.36.73,3.13,3.13,0,0,1-1.84-.47,1.53,1.53,0,0,1-.63-1.23,1.49,1.49,0,0,1,.66-1.24,3.2,3.2,0,0,1,2-.47h3.05Z"/><path class="cls-2" d="M92.16,92.69a.66.66,0,0,0-.54-.19.78.78,0,0,0-.51.19.59.59,0,0,0-.21.47v12.46a.59.59,0,0,0,.21.47.68.68,0,0,0,.51.18,1,1,0,0,0,.54-.18.59.59,0,0,0,.21-.47V93.16A.59.59,0,0,0,92.16,92.69Z"/><path class="cls-2" d="M87.5,92.69A.66.66,0,0,0,87,92.5a.78.78,0,0,0-.51.19.59.59,0,0,0-.21.47v12.46a.59.59,0,0,0,.21.47.68.68,0,0,0,.51.18,1,1,0,0,0,.54-.18.71.71,0,0,0,.21-.47V93.16A.59.59,0,0,0,87.5,92.69Z"/><path class="cls-2" d="M83,93a1,1,0,0,0-1.4,0,1,1,0,0,0-.26.67,1,1,0,0,0,.26.7,1,1,0,0,0,1.65-.7A1,1,0,0,0,83,93Z"/><path class="cls-2" d="M82.74,96.58a.7.7,0,0,0-.53-.18.86.86,0,0,0-.52.18.59.59,0,0,0-.21.47v8.57a.59.59,0,0,0,.21.47.71.71,0,0,0,.52.18,1,1,0,0,0,.53-.18.59.59,0,0,0,.21-.47V97.05A.59.59,0,0,0,82.74,96.58Z"/><path class="cls-2" d="M79.5,93a.6.6,0,0,0-.46-.21.94.94,0,0,0-.86.67l-4.43,11h-.12l-4.38-11-.07-.17a.71.71,0,0,0-.32-.32.84.84,0,0,0-.47-.17.59.59,0,0,0-.47.21.69.69,0,0,0-.18.56,2.2,2.2,0,0,0,.18.68l4.66,11.6a1.47,1.47,0,0,0,.45.54,1.17,1.17,0,0,0,.67.18,1.11,1.11,0,0,0,.7-.23,1.32,1.32,0,0,0,.44-.53L79.5,94.18l.19-.67A.81.81,0,0,0,79.5,93Z"/><path class="cls-2" d="M60,97.3a4.35,4.35,0,0,0-3.1-1.11,3.23,3.23,0,0,0-1.07.16,6,6,0,0,0-.84.35,3.91,3.91,0,0,0-.58.46,4.26,4.26,0,0,0-.35.38l-.12.16h-.09V93.13a.57.57,0,0,0-.21-.46.63.63,0,0,0-.51-.19.81.81,0,0,0-.52.19.57.57,0,0,0-.21.46v12.49a.59.59,0,0,0,.21.47.83.83,0,0,0,1,0,.59.59,0,0,0,.21-.47V100.1a2.31,2.31,0,0,1,.86-1.79,3.16,3.16,0,0,1,2.19-.77,2.87,2.87,0,0,1,2,.74,2.37,2.37,0,0,1,.79,1.82v5.52a.67.67,0,0,0,.72.65.86.86,0,0,0,.52-.18.71.71,0,0,0,.21-.47V100.1A3.68,3.68,0,0,0,60,97.3Z"/><path class="cls-2" d="M48.19,97.33a4,4,0,0,0-2.94-1.14A4.6,4.6,0,0,0,42.5,97c-.76.51-1.14,1-1.14,1.4a1,1,0,0,0,.19.56.59.59,0,0,0,.47.21.77.77,0,0,0,.58-.26,3.35,3.35,0,0,1,2.65-1.33,2.68,2.68,0,0,1,1.91.75,2.52,2.52,0,0,1,.77,1.81v.28h-3a5,5,0,0,0-3.12.84,2.6,2.6,0,0,0-1.07,2.19,2.69,2.69,0,0,0,1,2.19,4.62,4.62,0,0,0,3,.84,4.18,4.18,0,0,0,1.17-.16,6.72,6.72,0,0,0,.88-.35,3.1,3.1,0,0,0,.61-.47,2.59,2.59,0,0,0,.37-.37l.12-.16h.09v.67a.59.59,0,0,0,.21.47.7.7,0,0,0,.51.18.83.83,0,0,0,.51-.18.59.59,0,0,0,.21-.47V100.1A3.64,3.64,0,0,0,48.19,97.33ZM48,102.59a2.33,2.33,0,0,1-.89,1.82,3.74,3.74,0,0,1-2.35.72,3.12,3.12,0,0,1-1.84-.46,1.51,1.51,0,0,1-.63-1.24,1.46,1.46,0,0,1,.65-1.23,3.22,3.22,0,0,1,2-.47H48Z"/><path class="cls-2" d="M37.75,97.37a4.49,4.49,0,0,0-3.21-1.18,4.25,4.25,0,0,0-1.12.14,3,3,0,0,0-.84.35,2.18,2.18,0,0,0-.56.44,1.93,1.93,0,0,0-.35.35l-.09.16h-.1V93.16a.59.59,0,0,0-.21-.47.76.76,0,0,0-1,0,.52.52,0,0,0-.19.47v9.22a3.91,3.91,0,0,0,1.26,2.92,4.5,4.5,0,0,0,3.22,1.18,4.49,4.49,0,0,0,3.21-1.18A3.88,3.88,0,0,0,39,102.38v-2.09A3.88,3.88,0,0,0,37.75,97.37Zm-.16,5a2.52,2.52,0,0,1-.86,2,3.1,3.1,0,0,1-2.19.79,3.07,3.07,0,0,1-2.19-.79,2.6,2.6,0,0,1-.87-2v-2.09a2.53,2.53,0,0,1,.87-2,3,3,0,0,1,2.19-.79,3.1,3.1,0,0,1,2.19.79,2.59,2.59,0,0,1,.86,2Z"/><path class="cls-2" d="M25.61,94a5.73,5.73,0,0,0-4.12-1.52A5.76,5.76,0,0,0,17.36,94a5.19,5.19,0,0,0-1.58,3.89v3.24A5.19,5.19,0,0,0,17.36,105a5.75,5.75,0,0,0,4.13,1.51A5.73,5.73,0,0,0,25.61,105a5.16,5.16,0,0,0,1.59-3.89V97.91A5.16,5.16,0,0,0,25.61,94Zm.07,7.11A3.83,3.83,0,0,1,24.52,104a4.15,4.15,0,0,1-3,1.14,4.06,4.06,0,0,1-3-1.14,3.83,3.83,0,0,1-1.16-2.86V97.89A3.87,3.87,0,0,1,18.48,95a4.18,4.18,0,0,1,3-1.14,4.15,4.15,0,0,1,3,1.14,3.87,3.87,0,0,1,1.16,2.87Z"/><path class="cls-3" d="M96.86,84.56a.93.93,0,0,0-.28.28c-3.68,1.84-4.35-3.28-4.82-5.15C91,76.78,87.61,73.94,85,74.92l-.14.91c1.59,1.51,4.55,6.5,3.15,8.31-2.4,3.1-2.29-1.51-2.8-3-1.84-5.49-9.55,1-4.38,4.78a21.35,21.35,0,0,0-4.84.23c-.14,0-.28.07-.28.24a.29.29,0,0,0,.28.28,19,19,0,0,1,6-.1,9.42,9.42,0,0,0,1.14.47.53.53,0,0,0,.63-.35.54.54,0,0,0-.33-.68c-7-2.6-.55-8.52.8-4.52.3.94,1,8.07,4.7,3.31,1.68-2.16-.58-6.54-2.4-8.85,6.36.49,2.64,12.88,10.56,10C98.54,85.33,98,84.07,96.86,84.56Z"/><path class="cls-3" d="M84.28,61.17c-.61-3.52,0-4.31-5.06-4.71a5.67,5.67,0,0,0-1-.11.83.83,0,0,0-.53.19l0,0a.51.51,0,0,0,0,.74h0a.79.79,0,0,0,.55.22h.13A3.86,3.86,0,0,1,81.41,61c-4.45-2.28-11.88,3.92-5.49,2.64.74-.14,3.89-.54,4.17.72a.56.56,0,0,0,.63.44.55.55,0,0,0,.44-.63c-.51-2.37-4-1.79-5.83-1.47,1.47-.86,4.36-1.58,5.69-.74,2.24,1.4,1.7-2.17,0-4.24,1.1.19,2,.6,2.22,1.91.76,5.66.07,1.51,4,2.26,2.7.51,3.4,1.7,3.63,3.24A4.11,4.11,0,0,0,86,63.4c-2.84.8,2.42,2.22.65,6-.28-1.8-.75-3.73-2.8-4.1-4.33-.79-7.75,3.33-10.22,8.25A30.27,30.27,0,0,0,62.8,64.73c-9.62-4.17-19.08.54-18.71,10.88.3,8.58,7,11.56,14.3,13v-.1a.47.47,0,0,0,.52-.42.48.48,0,0,0-.42-.51c-6.74-1.4-13.17-4-13.47-12.11-.37-9.67,8.41-13.82,17.34-9.93a29.75,29.75,0,0,1,10.69,9,62.87,62.87,0,0,0-3.82,11.35c-1.21,5.36,6.55-.14,7-1.21,1.42-3.1.27-6.76-2-10.16.68-1.49,1.24-2.66,1.49-3.08,1.68-2.7,8.09-7.87,9.37-3.59.42,1.4.16,3.31,1,3.59a4.15,4.15,0,0,0,.51-6.78l-.3-.25c.89-.17,3.12.35,3.43.88,0,0,1.84,5.36,2.26,2.7C92.88,62.4,87.91,59.37,84.28,61.17Zm-8.9,23.11c-.58,1.28-4.52,2.87-5.31,3-.31-1.56,1.93-7.41,3.73-11.56C75.68,78.62,76.57,81.72,75.38,84.28Z"/><path class="cls-3" d="M71,31.65A34,34,0,0,0,41.85,83h1.07a33,33,0,1,1,56.13,0h1.07A33.94,33.94,0,0,0,88.36,36.45,33.6,33.6,0,0,0,71,31.65Z"/></svg>