<svg id="Camada_1" data-name="Camada 1" xmlns="http://www.w3.org/2000/svg" viewBox="0 0 142 142"><defs><style>.cls-1{fill:#145163;}.cls-2,.cls-3,.cls-4{fill:#fff;fill-rule:evenodd;}.cls-3,.cls-4{stroke:#fff;stroke-miterlimit:10;}.cls-3{stroke-width:0.24px;}.cls-4{stroke-width:0.48px;}.cls-5{fill:#0a9c49;}.cls-6{fill:#fedf00;}.cls-7{fill:#253370;}.cls-8{fill:#cce7d4;}.cls-9{fill:#5fa9dd;}</style></defs><title>logo-white-br</title><path class="cls-1" d="M0,0H142a0,0,0,0,1,0,0V109.86A32.14,32.14,0,0,1,109.86,142H0a0,0,0,0,1,0,0V0A0,0,0,0,1,0,0Z"/><path class="cls-2" d="M122.91,91.06a.65.65,0,0,0,.65-.59v-1a3.68,3.68,0,0,0-1.2-2.78,4.71,4.71,0,0,0-6.12,0,3.68,3.68,0,0,0-1.2,2.78v2a3.58,3.58,0,0,0,1.2,2.77,4.54,4.54,0,0,0,3.15,1.11,4.64,4.64,0,0,0,2.79-.84c.8-.55,1.2-1.07,1.2-1.51a.89.89,0,0,0-.18-.53.56.56,0,0,0-.44-.2.64.64,0,0,0-.56.27A3.42,3.42,0,0,1,119.39,94a3.17,3.17,0,0,1-2.15-.76,2.45,2.45,0,0,1-.85-1.86v-.36Zm-5.67-3.5a3.22,3.22,0,0,1,4.17,0,2.48,2.48,0,0,1,.82,1.86v.36h-5.79l0-.36A2.34,2.34,0,0,1,117.24,87.56Z"/><path class="cls-2" d="M112.45,85.9a.8.8,0,0,0-.49-.18.78.78,0,0,0-.49.18.56.56,0,0,0-.2.44V87h-.09l-.26-.35a3.11,3.11,0,0,0-1-.73,3.19,3.19,0,0,0-1.58-.36,4.3,4.3,0,0,0-3.06,1.13,3.67,3.67,0,0,0-1.19,2.78v1.64a3.66,3.66,0,0,0,1.19,2.77A4.4,4.4,0,0,0,108.37,95a3.54,3.54,0,0,0,1.06-.16,2.65,2.65,0,0,0,.78-.33,5.7,5.7,0,0,0,.55-.42,2.42,2.42,0,0,0,.31-.33l.11-.14h.09v1.53a2.45,2.45,0,0,1-.84,1.87,3,3,0,0,1-2.15.75,3.44,3.44,0,0,1-2.82-1.55.65.65,0,0,0-.53-.27.56.56,0,0,0-.44.2.67.67,0,0,0-.18.53c0,.45.4,1,1.2,1.51a4.57,4.57,0,0,0,2.79.84,4.47,4.47,0,0,0,3.15-1.11,3.6,3.6,0,0,0,1.2-2.77V86.34A.56.56,0,0,0,112.45,85.9Zm-1.22,5.16a2.43,2.43,0,0,1-.82,1.87,3.22,3.22,0,0,1-4.17,0,2.46,2.46,0,0,1-.82-1.87V89.42a2.34,2.34,0,0,1,.82-1.86,3.07,3.07,0,0,1,2.1-.75,3,3,0,0,1,2.07.73,2.22,2.22,0,0,1,.82,1.71Z"/><path class="cls-2" d="M100.67,86.61a4,4,0,0,0-2.84-1.07,4.34,4.34,0,0,0-2.61.76c-.74.48-1.09.93-1.09,1.33a.91.91,0,0,0,.18.53.56.56,0,0,0,.44.2.72.72,0,0,0,.55-.27,3.23,3.23,0,0,1,2.53-1.26,2.54,2.54,0,0,1,1.82.71,2.4,2.4,0,0,1,.73,1.73v.26H97.5a4.76,4.76,0,0,0-3,.8,2.66,2.66,0,0,0,0,4.17,4.37,4.37,0,0,0,2.81.8,3.43,3.43,0,0,0,1.11-.16,4.08,4.08,0,0,0,.84-.33,3.41,3.41,0,0,0,.58-.44,1.61,1.61,0,0,0,.33-.36l.11-.15h.09v.64a.59.59,0,0,0,.2.45.69.69,0,0,0,.49.17.89.89,0,0,0,.51-.17.67.67,0,0,0,.2-.45V89.25A3.51,3.51,0,0,0,100.67,86.61Zm-.29,5a2.21,2.21,0,0,1-.84,1.73,3.58,3.58,0,0,1-2.24.69,2.93,2.93,0,0,1-1.75-.45,1.42,1.42,0,0,1-.6-1.17,1.41,1.41,0,0,1,.62-1.18,3.09,3.09,0,0,1,1.91-.44h2.9Z"/><path class="cls-2" d="M91.14,82.19a.61.61,0,0,0-.51-.17.77.77,0,0,0-.49.17.55.55,0,0,0-.2.45V94.5a.56.56,0,0,0,.2.45.67.67,0,0,0,.49.17.92.92,0,0,0,.51-.17.58.58,0,0,0,.19-.45V82.64A.57.57,0,0,0,91.14,82.19Z"/><path class="cls-2" d="M86.7,82.19a.59.59,0,0,0-.51-.17.79.79,0,0,0-.49.17.58.58,0,0,0-.2.45V94.5a.59.59,0,0,0,.2.45.69.69,0,0,0,.49.17A.89.89,0,0,0,86.7,95a.67.67,0,0,0,.2-.45V82.64A.58.58,0,0,0,86.7,82.19Z"/><path class="cls-2" d="M82.4,82.44a.92.92,0,0,0-1.58.64,1,1,0,0,0,.25.67,1,1,0,0,0,1.33,0,1.08,1.08,0,0,0,.24-.67A1,1,0,0,0,82.4,82.44Z"/><path class="cls-2" d="M82.18,85.9a.67.67,0,0,0-.51-.18.78.78,0,0,0-.49.18.56.56,0,0,0-.2.44V94.5a.59.59,0,0,0,.2.45.67.67,0,0,0,.49.17.92.92,0,0,0,.51-.17.59.59,0,0,0,.2-.45V86.34A.56.56,0,0,0,82.18,85.9Z"/><path class="cls-2" d="M79.09,82.44a.55.55,0,0,0-.44-.2.9.9,0,0,0-.82.64L73.62,93.39h-.11L69.34,82.9l-.07-.15a.71.71,0,0,0-.31-.31.82.82,0,0,0-.44-.16.58.58,0,0,0-.45.2.7.7,0,0,0-.18.53,2.32,2.32,0,0,0,.18.65l4.44,11a1.3,1.3,0,0,0,.42.51,1.15,1.15,0,0,0,.64.18,1.08,1.08,0,0,0,.67-.22,1.48,1.48,0,0,0,.42-.51l4.43-11,.18-.64A.73.73,0,0,0,79.09,82.44Z"/><path class="cls-2" d="M60.51,86.58a4.15,4.15,0,0,0-2.95-1.06,2.94,2.94,0,0,0-1,.16,5.41,5.41,0,0,0-.8.33,3.54,3.54,0,0,0-.55.44,3.92,3.92,0,0,0-.33.36l-.12.15h-.08V82.62a.58.58,0,0,0-.2-.45A.62.62,0,0,0,54,82a.78.78,0,0,0-.49.18.58.58,0,0,0-.2.45V94.5a.59.59,0,0,0,.2.45.77.77,0,0,0,.49.17.79.79,0,0,0,.49-.17.59.59,0,0,0,.2-.45V89.25a2.22,2.22,0,0,1,.82-1.71,3,3,0,0,1,2.08-.73,2.71,2.71,0,0,1,1.95.71,2.26,2.26,0,0,1,.76,1.73V94.5a.56.56,0,0,0,.2.45.59.59,0,0,0,.48.17.77.77,0,0,0,.49-.17.67.67,0,0,0,.2-.45V89.25A3.5,3.5,0,0,0,60.51,86.58Z"/><path class="cls-2" d="M49.29,86.61a3.87,3.87,0,0,0-2.79-1.09,4.41,4.41,0,0,0-2.62.75c-.73.49-1.09.94-1.09,1.33a.94.94,0,0,0,.18.54.57.57,0,0,0,.44.2.73.73,0,0,0,.56-.25,3.21,3.21,0,0,1,2.53-1.26,2.51,2.51,0,0,1,1.81.71,2.41,2.41,0,0,1,.74,1.73v.26H46.14a4.76,4.76,0,0,0-3,.8,2.5,2.5,0,0,0-1,2.09,2.57,2.57,0,0,0,1,2.08,4.42,4.42,0,0,0,2.82.8,3.47,3.47,0,0,0,1.11-.16,4.08,4.08,0,0,0,.84-.33,2.77,2.77,0,0,0,.58-.44,2.39,2.39,0,0,0,.35-.36l.11-.15H49v.64a.59.59,0,0,0,.2.45.69.69,0,0,0,.49.17A.77.77,0,0,0,50.2,95a.59.59,0,0,0,.2-.45V89.25A3.51,3.51,0,0,0,49.29,86.61Zm-.22,5a2.21,2.21,0,0,1-.85,1.73A3.59,3.59,0,0,1,46,94a3,3,0,0,1-1.76-.45,1.45,1.45,0,0,1-.6-1.17,1.42,1.42,0,0,1,.63-1.18,3.08,3.08,0,0,1,1.9-.44h2.91Z"/><path class="cls-2" d="M39.35,86.65a4.63,4.63,0,0,0-4.12-1,3.05,3.05,0,0,0-.8.34,2.18,2.18,0,0,0-.53.42,2.57,2.57,0,0,0-.33.33l-.09.16h-.09V82.64a.58.58,0,0,0-.2-.45.76.76,0,0,0-1,0,.47.47,0,0,0-.17.45v8.78a3.66,3.66,0,0,0,1.19,2.77,4.71,4.71,0,0,0,6.12,0,3.67,3.67,0,0,0,1.2-2.77v-2A3.67,3.67,0,0,0,39.35,86.65Zm-.15,4.77a2.39,2.39,0,0,1-.82,1.86,3.24,3.24,0,0,1-4.17,0,2.46,2.46,0,0,1-.82-1.86v-2a2.41,2.41,0,0,1,.82-1.86,2.87,2.87,0,0,1,2.08-.75,3,3,0,0,1,2.09.75,2.48,2.48,0,0,1,.82,1.86Z"/><path class="cls-2" d="M27.8,83.46A5.43,5.43,0,0,0,23.88,82,5.44,5.44,0,0,0,20,83.46a4.89,4.89,0,0,0-1.51,3.7v3.08A4.93,4.93,0,0,0,20,94a5.48,5.48,0,0,0,3.93,1.44A5.47,5.47,0,0,0,27.8,94a4.93,4.93,0,0,0,1.51-3.71V87.16A4.89,4.89,0,0,0,27.8,83.46Zm.07,6.76A3.72,3.72,0,0,1,26.76,93,4,4,0,0,1,23.88,94,3.86,3.86,0,0,1,21,93a3.64,3.64,0,0,1-1.11-2.73V87.14A3.64,3.64,0,0,1,21,84.41a3.94,3.94,0,0,1,2.86-1.09,4,4,0,0,1,2.88,1.09,3.72,3.72,0,0,1,1.11,2.73Z"/><path class="cls-3" d="M95.61,74.46a.72.72,0,0,0-.26.26c-3.51,1.76-4.15-3.12-4.59-4.9-.69-2.77-4-5.47-6.43-4.54l-.14.86c1.51,1.44,4.33,6.19,3,7.92-2.29,3-2.18-1.44-2.66-2.88-1.76-5.24-9.1.95-4.17,4.54a20.41,20.41,0,0,0-4.61.22c-.14,0-.27.07-.27.23a.27.27,0,0,0,.27.26,18.08,18.08,0,0,1,5.67-.09,10.4,10.4,0,0,0,1.09.45.51.51,0,0,0,.6-.34.51.51,0,0,0-.31-.64c-6.63-2.48-.54-8.12.75-4.3.29.89,1,7.67,4.48,3.15,1.6-2.06-.55-6.23-2.28-8.43,6,.47,2.5,12.26,10,9.47C97.21,75.19,96.66,74,95.61,74.46Z"/><path class="cls-3" d="M83.64,52.19c-.58-3.35,0-4.1-4.81-4.48a5,5,0,0,0-1-.1.79.79,0,0,0-.51.18l0,0a.53.53,0,0,0-.15.35.5.5,0,0,0,.16.36h0a.71.71,0,0,0,.53.21H78a3.67,3.67,0,0,1,3,3.3c-4.23-2.17-11.31,3.73-5.23,2.51.71-.13,3.7-.51,4,.69a.54.54,0,0,0,.6.42.53.53,0,0,0,.42-.6c-.49-2.26-3.82-1.71-5.55-1.4,1.4-.82,4.15-1.5,5.42-.71,2.12,1.33,1.61-2.06-.05-4,1,.18,2,.57,2.11,1.82.73,5.39.06,1.44,3.77,2.15,2.57.49,3.24,1.62,3.46,3.08a3.91,3.91,0,0,0-4.59-1.64c-2.71.75,2.3,2.11.62,5.74-.27-1.71-.71-3.55-2.66-3.9-4.13-.75-7.39,3.17-9.74,7.85a28.73,28.73,0,0,0-10.27-8.43c-9.15-4-18.16.51-17.8,10.36.28,8.16,6.69,11,13.61,12.4v-.09a.45.45,0,0,0,.49-.4.44.44,0,0,0-.4-.49C52.68,76,46.56,73.5,46.27,65.83c-.35-9.2,8-13.15,16.5-9.45A28.32,28.32,0,0,1,73,64.92a60.18,60.18,0,0,0-3.64,10.8c-1.15,5.1,6.24-.13,6.7-1.15,1.35-2.95.27-6.44-1.91-9.67.65-1.42,1.18-2.53,1.42-2.93,1.6-2.57,7.7-7.5,8.92-3.42.4,1.34.15,3.15,1,3.42a3.94,3.94,0,0,0,.49-6.45c0-.05-.18-.14-.29-.25.84-.15,3,.34,3.26.85,0,0,1.75,5.1,2.15,2.57C91.82,53.37,87.1,50.48,83.64,52.19Zm-8.47,22c-.56,1.22-4.3,2.73-5.06,2.81-.29-1.48,1.84-7,3.55-11C75.46,68.8,76.3,71.75,75.17,74.19Z"/><path class="cls-4" d="M71,24.09A32.33,32.33,0,0,0,43.26,73h1A31.43,31.43,0,1,1,97.7,73h1A32.33,32.33,0,0,0,71,24.09Z"/><path class="cls-5" d="M79.27,116.39a1.52,1.52,0,0,1-1.52,1.52H67.11a1.52,1.52,0,0,1-1.52-1.52v-6.84A1.52,1.52,0,0,1,67.11,108H77.75a1.52,1.52,0,0,1,1.52,1.52Z"/><path class="cls-6" d="M78,113l-5.6,4.22L66.83,113l5.6-4.23Z"/><circle class="cls-7" cx="72.43" cy="112.94" r="2.45"/><path class="cls-8" d="M70.29,111.78a2.34,2.34,0,0,0-.26.77,6.15,6.15,0,0,1,4.46,1.75,2.36,2.36,0,0,0,.34-.76,7,7,0,0,0-4.54-1.76Z"/><path class="cls-9" d="M71.1,113.05h.38v.38H71.1Zm.76.38h.38v.38h-.38Zm1.52.76h.38v.39h-.38Zm-1.14.39h.38V115h-.38Zm1.14-2.29h.38v.38h-.38Z"/></svg>