<svg id="Camada_1" data-name="Camada 1" xmlns="http://www.w3.org/2000/svg" viewBox="0 0 142 142"><defs><style>.cls-1{fill:#145163;}.cls-2{fill:#fff;fill-rule:evenodd;}</style></defs><title>logo-green</title><path class="cls-1" d="M0,0H142a0,0,0,0,1,0,0V119.4A22.6,22.6,0,0,1,119.4,142H0a0,0,0,0,1,0,0V0A0,0,0,0,1,0,0Z"/><path class="cls-2" d="M127.39,103.06a.71.71,0,0,0,.7-.65V101.3a4,4,0,0,0-1.3-3,5.11,5.11,0,0,0-6.65,0,4,4,0,0,0-1.3,3v2.17a3.93,3.93,0,0,0,1.3,3,5,5,0,0,0,3.42,1.21,5.07,5.07,0,0,0,3-.92c.86-.6,1.3-1.15,1.3-1.64a1,1,0,0,0-.19-.57.61.61,0,0,0-.49-.22.65.65,0,0,0-.6.29,3.72,3.72,0,0,1-3.06,1.66,3.44,3.44,0,0,1-2.33-.82,2.7,2.7,0,0,1-.92-2v-.39Zm-6.16-3.8a3.48,3.48,0,0,1,4.52,0,2.67,2.67,0,0,1,.9,2v.38h-6.29l0-.38A2.6,2.6,0,0,1,121.23,99.26Z"/><path class="cls-2" d="M116,97.45a.84.84,0,0,0-.53-.19.86.86,0,0,0-.53.19.61.61,0,0,0-.21.48v.7h-.1l-.29-.39a3.82,3.82,0,0,0-2.79-1.18,4.66,4.66,0,0,0-3.33,1.23,4,4,0,0,0-1.3,3v1.79a4,4,0,0,0,1.3,3,4.79,4.79,0,0,0,3.35,1.2,3.88,3.88,0,0,0,1.16-.17,2.92,2.92,0,0,0,.84-.36,4.54,4.54,0,0,0,.6-.46,2.33,2.33,0,0,0,.34-.36l.12-.14h.1v1.66a2.62,2.62,0,0,1-.92,2,3.23,3.23,0,0,1-2.34.82,3.74,3.74,0,0,1-3.06-1.68.69.69,0,0,0-.57-.29.62.62,0,0,0-.49.21.79.79,0,0,0-.19.58c0,.48.43,1,1.3,1.64a5.07,5.07,0,0,0,3,.92,4.89,4.89,0,0,0,3.42-1.21,3.91,3.91,0,0,0,1.3-3V97.93A.59.59,0,0,0,116,97.45Zm-1.32,5.61a2.66,2.66,0,0,1-.89,2,3.52,3.52,0,0,1-4.53,0,2.7,2.7,0,0,1-.89-2v-1.78a2.56,2.56,0,0,1,.89-2,3.33,3.33,0,0,1,2.29-.82,3.27,3.27,0,0,1,2.24.79,2.43,2.43,0,0,1,.89,1.86Z"/><path class="cls-2" d="M103.23,98.22a4.32,4.32,0,0,0-3.08-1.16,4.84,4.84,0,0,0-2.85.82c-.79.53-1.18,1-1.18,1.45a1,1,0,0,0,.2.58.61.61,0,0,0,.48.21.79.79,0,0,0,.6-.29,3.51,3.51,0,0,1,2.75-1.37,2.8,2.8,0,0,1,2,.77,2.61,2.61,0,0,1,.8,1.88v.29H99.79a5.12,5.12,0,0,0-3.23.87,2.72,2.72,0,0,0-1.11,2.26,2.8,2.8,0,0,0,1.08,2.27,4.84,4.84,0,0,0,3.06.86,4.11,4.11,0,0,0,1.21-.17,5.07,5.07,0,0,0,.91-.36,3.62,3.62,0,0,0,.63-.48,2.14,2.14,0,0,0,.36-.38l.12-.17h.1v.7a.61.61,0,0,0,.21.48.75.75,0,0,0,.53.19,1,1,0,0,0,.56-.19.7.7,0,0,0,.22-.48v-5.71A3.81,3.81,0,0,0,103.23,98.22Zm-.31,5.47a2.42,2.42,0,0,1-.92,1.88,3.85,3.85,0,0,1-2.43.74,3.15,3.15,0,0,1-1.9-.48,1.56,1.56,0,0,1-.65-1.27,1.53,1.53,0,0,1,.67-1.28,3.3,3.3,0,0,1,2.07-.48h3.16Z"/><path class="cls-2" d="M92.87,93.43a.64.64,0,0,0-.55-.2.85.85,0,0,0-.53.2.59.59,0,0,0-.22.48V106.8a.59.59,0,0,0,.22.48.74.74,0,0,0,.53.19,1,1,0,0,0,.55-.19.59.59,0,0,0,.22-.48V93.91A.59.59,0,0,0,92.87,93.43Z"/><path class="cls-2" d="M88.05,93.43a.64.64,0,0,0-.55-.2.87.87,0,0,0-.53.2.62.62,0,0,0-.22.48V106.8a.62.62,0,0,0,.22.48.75.75,0,0,0,.53.19.94.94,0,0,0,.55-.19.66.66,0,0,0,.22-.48V93.91A.59.59,0,0,0,88.05,93.43Z"/><path class="cls-2" d="M83.38,93.69a1.05,1.05,0,0,0-1.44,0,1,1,0,0,0-.27.7,1.11,1.11,0,0,0,.27.72,1.09,1.09,0,0,0,1.44,0,1.11,1.11,0,0,0,.27-.72A1,1,0,0,0,83.38,93.69Z"/><path class="cls-2" d="M83.14,97.45a.72.72,0,0,0-.55-.19.82.82,0,0,0-.53.19.59.59,0,0,0-.22.48v8.87a.59.59,0,0,0,.22.48.72.72,0,0,0,.53.19,1,1,0,0,0,.55-.19.62.62,0,0,0,.22-.48V97.93A.62.62,0,0,0,83.14,97.45Z"/><path class="cls-2" d="M79.79,93.69a.66.66,0,0,0-.48-.22,1,1,0,0,0-.89.7l-4.58,11.42h-.12L69.19,94.2,69.12,94a.7.7,0,0,0-.34-.34.85.85,0,0,0-.48-.17.59.59,0,0,0-.48.22.73.73,0,0,0-.19.58,2.14,2.14,0,0,0,.19.7l4.82,12a1.38,1.38,0,0,0,.46.56,1.22,1.22,0,0,0,.69.19,1.14,1.14,0,0,0,.73-.24A1.44,1.44,0,0,0,75,107l4.82-12,.19-.7A.81.81,0,0,0,79.79,93.69Z"/><path class="cls-2" d="M59.61,98.2A4.49,4.49,0,0,0,56.4,97a3.48,3.48,0,0,0-1.11.17,6.29,6.29,0,0,0-.86.36,3.69,3.69,0,0,0-.61.48,4.61,4.61,0,0,0-.36.39l-.12.17h-.09V93.88A.62.62,0,0,0,53,93.4a.67.67,0,0,0-.53-.19.84.84,0,0,0-.53.19.59.59,0,0,0-.22.48V106.8a.59.59,0,0,0,.22.48.84.84,0,0,0,.53.19.86.86,0,0,0,.53-.19.62.62,0,0,0,.22-.48v-5.71a2.4,2.4,0,0,1,.89-1.86,3.29,3.29,0,0,1,2.26-.79,3,3,0,0,1,2.12.77,2.48,2.48,0,0,1,.82,1.88v5.71a.59.59,0,0,0,.22.48.65.65,0,0,0,.53.19.86.86,0,0,0,.53-.19.69.69,0,0,0,.21-.48v-5.71A3.75,3.75,0,0,0,59.61,98.2Z"/><path class="cls-2" d="M47.42,98.22a4.25,4.25,0,0,0-3-1.18,4.79,4.79,0,0,0-2.84.82c-.8.53-1.18,1-1.18,1.44a1,1,0,0,0,.19.58.59.59,0,0,0,.48.22.81.81,0,0,0,.61-.27,3.49,3.49,0,0,1,2.74-1.37,2.82,2.82,0,0,1,2,.77,2.64,2.64,0,0,1,.79,1.88v.29H44a5.12,5.12,0,0,0-3.23.87,2.72,2.72,0,0,0-1.11,2.26,2.84,2.84,0,0,0,1.06,2.27,4.81,4.81,0,0,0,3.06.86,4,4,0,0,0,1.2-.17,4.88,4.88,0,0,0,.92-.36,3.28,3.28,0,0,0,.63-.48,3.41,3.41,0,0,0,.38-.38l.12-.17h.1v.7a.61.61,0,0,0,.21.48.75.75,0,0,0,.53.19.82.82,0,0,0,.53-.19.59.59,0,0,0,.22-.48v-5.71A3.84,3.84,0,0,0,47.42,98.22Zm-.24,5.44a2.39,2.39,0,0,1-.92,1.88,3.93,3.93,0,0,1-2.43.75,3.26,3.26,0,0,1-1.91-.48,1.56,1.56,0,0,1-.65-1.28,1.53,1.53,0,0,1,.68-1.28,3.41,3.41,0,0,1,2.07-.48h3.16Z"/><path class="cls-2" d="M36.62,98.27A4.62,4.62,0,0,0,33.3,97a5.11,5.11,0,0,0-1.16.14,3.55,3.55,0,0,0-.86.37,2.57,2.57,0,0,0-.58.45,2,2,0,0,0-.36.36l-.1.17h-.1V93.91a.61.61,0,0,0-.21-.48.79.79,0,0,0-1.06,0,.5.5,0,0,0-.19.48v9.54a4,4,0,0,0,1.3,3,4.62,4.62,0,0,0,3.32,1.23,4.62,4.62,0,0,0,3.32-1.23,4,4,0,0,0,1.31-3v-2.17A4,4,0,0,0,36.62,98.27Zm-.16,5.18a2.62,2.62,0,0,1-.9,2,3.52,3.52,0,0,1-4.52,0,2.68,2.68,0,0,1-.9-2v-2.17a2.6,2.6,0,0,1,.9-2,3.09,3.09,0,0,1,2.26-.82,3.18,3.18,0,0,1,2.26.82,2.67,2.67,0,0,1,.9,2Z"/><path class="cls-2" d="M24.07,94.8a5.89,5.89,0,0,0-4.26-1.57,5.89,5.89,0,0,0-4.26,1.57,5.31,5.31,0,0,0-1.64,4v3.35a5.3,5.3,0,0,0,1.64,4,5.89,5.89,0,0,0,4.26,1.57,5.89,5.89,0,0,0,4.26-1.57,5.3,5.3,0,0,0,1.64-4V98.82A5.31,5.31,0,0,0,24.07,94.8Zm.08,7.35a4,4,0,0,1-1.21,3,4.3,4.3,0,0,1-3.13,1.18,4.22,4.22,0,0,1-3.11-1.18,4,4,0,0,1-1.2-3V98.8a4,4,0,0,1,1.2-3,4.27,4.27,0,0,1,3.11-1.19,4.27,4.27,0,0,1,3.13,1.19,4,4,0,0,1,1.21,3Z"/><path class="cls-2" d="M77.84,55.37v0l0,0Z"/><path class="cls-2" d="M97.74,85a.89.89,0,0,0-.29.29c-3.81,1.91-4.51-3.39-5-5.32-.74-3-4.28-5.95-7-4.94l-.15.94c1.64,1.57,4.7,6.72,3.25,8.6-2.48,3.2-2.36-1.57-2.89-3.13-1.9-5.69-9.87,1-4.52,4.94a21.29,21.29,0,0,0-5,.24c-.14,0-.28.07-.28.24a.29.29,0,0,0,.28.29,19.47,19.47,0,0,1,6.17-.1,10.06,10.06,0,0,0,1.18.48.54.54,0,0,0,.65-.36.55.55,0,0,0-.34-.7c-7.2-2.7-.57-8.81.82-4.67.32,1,1.06,8.33,4.87,3.42,1.73-2.24-.6-6.77-2.48-9.15,6.58.5,2.72,13.32,10.91,10.28C99.47,85.82,98.87,84.52,97.74,85Z"/><path class="cls-2" d="M84.73,60.83c-.63-3.63,0-4.45-5.23-4.86a5.47,5.47,0,0,0-1.09-.12.86.86,0,0,0-.55.2l0,0a.53.53,0,0,0-.16.38.54.54,0,0,0,.17.39h0a.84.84,0,0,0,.57.22h.14a4,4,0,0,1,3.22,3.6c-4.6-2.37-12.29,4-5.69,2.72.77-.15,4-.56,4.31.74a.59.59,0,0,0,.65.46.57.57,0,0,0,.46-.65c-.53-2.46-4.14-1.85-6-1.52,1.52-.89,4.5-1.63,5.88-.77,2.31,1.45,1.76-2.24,0-4.38,1.13.19,2.12.62,2.29,2,.79,5.86.07,1.57,4.09,2.34,2.8.53,3.52,1.76,3.76,3.35a4.24,4.24,0,0,0-5-1.78c-2.93.82,2.51,2.28.68,6.24-.29-1.86-.77-3.86-2.89-4.24-4.48-.82-8,3.44-10.58,8.52a31.15,31.15,0,0,0-11.15-9.15c-10-4.31-19.73.55-19.34,11.25.31,8.86,7.27,12,14.79,13.46v-.09a.49.49,0,0,0,.09-1c-7-1.44-13.61-4.19-13.92-12.52-.39-10,8.7-14.29,17.92-10.26a30.59,30.59,0,0,1,11.06,9.27,64.48,64.48,0,0,0-4,11.73c-1.25,5.54,6.77-.14,7.27-1.25,1.47-3.2.29-7-2.07-10.5.7-1.54,1.28-2.75,1.54-3.18,1.74-2.8,8.36-8.15,9.69-3.71.43,1.44.17,3.42,1,3.71a4.29,4.29,0,0,0,.53-7s-.19-.15-.31-.27c.92-.17,3.23.36,3.54.92,0,0,1.9,5.54,2.34,2.79C93.62,62.11,88.49,59,84.73,60.83Zm-9.2,23.9c-.6,1.33-4.67,3-5.49,3.06-.32-1.61,2-7.66,3.85-12C75.84,78.88,76.76,82.08,75.53,84.73Z"/><path class="cls-2" d="M71,30.31A35.12,35.12,0,0,0,40.86,83.43H42a34.14,34.14,0,1,1,58,0h1.11A35.12,35.12,0,0,0,71,30.31Z"/></svg>