<svg id="Camada_1" data-name="Camada 1" xmlns="http://www.w3.org/2000/svg" viewBox="0 0 142 142"><defs><style>.cls-1{fill:#145163;}.cls-2{fill:#fff;fill-rule:evenodd;}</style></defs><title>green_logo</title><rect class="cls-1" width="142" height="142"/><path class="cls-2" d="M129.77,104.42a.74.74,0,0,0,.73-.68v-1.16a4.18,4.18,0,0,0-1.35-3.14,5.33,5.33,0,0,0-6.93,0,4.19,4.19,0,0,0-1.36,3.14v2.26a4.1,4.1,0,0,0,1.36,3.14,5.18,5.18,0,0,0,3.56,1.26,5.31,5.31,0,0,0,3.16-1c.91-.63,1.36-1.2,1.36-1.71a1,1,0,0,0-.2-.6.63.63,0,0,0-.5-.22.69.69,0,0,0-.63.3,3.9,3.9,0,0,1-3.19,1.73,3.56,3.56,0,0,1-2.43-.85,2.81,2.81,0,0,1-1-2.11v-.4Zm-6.42-4a3.64,3.64,0,0,1,4.72,0,2.79,2.79,0,0,1,.92,2.11v.4h-6.55l0-.4A2.67,2.67,0,0,1,123.35,100.45Z"/><path class="cls-2" d="M117.92,98.57a.86.86,0,0,0-1.1,0,.63.63,0,0,0-.23.5v.73h-.1l-.3-.41a4,4,0,0,0-2.91-1.23,4.87,4.87,0,0,0-3.47,1.28,4.18,4.18,0,0,0-1.35,3.14v1.86a4.17,4.17,0,0,0,1.35,3.14,5,5,0,0,0,3.49,1.25,4.16,4.16,0,0,0,1.21-.17,3.09,3.09,0,0,0,.88-.38,7.21,7.21,0,0,0,.62-.47,2.58,2.58,0,0,0,.36-.38l.12-.15h.1V109a2.73,2.73,0,0,1-1,2.11,3.4,3.4,0,0,1-2.44.85,3.88,3.88,0,0,1-3.19-1.75.72.72,0,0,0-.6-.31.64.64,0,0,0-.5.23.76.76,0,0,0-.2.6c0,.5.45,1.08,1.35,1.71a5.28,5.28,0,0,0,3.17,1,5.09,5.09,0,0,0,3.56-1.25,4.09,4.09,0,0,0,1.36-3.14V99.07A.63.63,0,0,0,117.92,98.57Zm-1.38,5.85a2.65,2.65,0,0,1-.93,2.1,3.64,3.64,0,0,1-4.72,0,2.78,2.78,0,0,1-.93-2.1v-1.86a2.73,2.73,0,0,1,.93-2.11,3.5,3.5,0,0,1,2.39-.85,3.38,3.38,0,0,1,2.33.82,2.52,2.52,0,0,1,.93,1.94Z"/><path class="cls-2" d="M104.59,99.37a4.43,4.43,0,0,0-3.21-1.21,5,5,0,0,0-3,.86c-.83.55-1.23,1-1.23,1.5a1,1,0,0,0,.2.61.62.62,0,0,0,.5.22.83.83,0,0,0,.63-.3,3.63,3.63,0,0,1,2.86-1.43,3,3,0,0,1,2.06.8,2.78,2.78,0,0,1,.83,2v.3H101a5.32,5.32,0,0,0-3.36.91A2.82,2.82,0,0,0,96.48,106a2.89,2.89,0,0,0,1.13,2.36,5,5,0,0,0,3.19.9,4.45,4.45,0,0,0,1.26-.17,7.84,7.84,0,0,0,1-.38,3.88,3.88,0,0,0,.65-.5,1.84,1.84,0,0,0,.38-.41l.12-.17h.11v.73a.63.63,0,0,0,.22.5.75.75,0,0,0,.55.2,1,1,0,0,0,.58-.2.71.71,0,0,0,.23-.5v-6A4,4,0,0,0,104.59,99.37Zm-.32,5.7a2.54,2.54,0,0,1-1,2,4,4,0,0,1-2.53.78,3.33,3.33,0,0,1-2-.51,1.64,1.64,0,0,1-.68-1.33,1.61,1.61,0,0,1,.71-1.33,3.44,3.44,0,0,1,2.16-.5h3.29Z"/><path class="cls-2" d="M93.8,94.37a.72.72,0,0,0-.58-.2.9.9,0,0,0-.55.2.65.65,0,0,0-.23.51v13.43a.64.64,0,0,0,.23.5.75.75,0,0,0,.55.2,1.07,1.07,0,0,0,.58-.2.63.63,0,0,0,.22-.5V94.88A.64.64,0,0,0,93.8,94.37Z"/><path class="cls-2" d="M88.77,94.37a.7.7,0,0,0-.57-.2,1,1,0,0,0-.56.2.64.64,0,0,0-.22.51v13.43a.63.63,0,0,0,.22.5.79.79,0,0,0,.56.2,1,1,0,0,0,.57-.2.71.71,0,0,0,.23-.5V94.88A.62.62,0,0,0,88.77,94.37Z"/><path class="cls-2" d="M83.9,94.65a1.09,1.09,0,0,0-1.5,0,1.07,1.07,0,0,0-.28.73,1.14,1.14,0,0,0,.28.75,1.13,1.13,0,0,0,1.5,0,1.14,1.14,0,0,0,.28-.75A1.07,1.07,0,0,0,83.9,94.65Z"/><path class="cls-2" d="M83.65,98.57a.77.77,0,0,0-.57-.2.85.85,0,0,0-.56.2.62.62,0,0,0-.22.5v9.24a.63.63,0,0,0,.22.5.76.76,0,0,0,.56.2,1,1,0,0,0,.57-.2.64.64,0,0,0,.23-.5V99.07A.63.63,0,0,0,83.65,98.57Z"/><path class="cls-2" d="M80.16,94.65a.66.66,0,0,0-.5-.23,1,1,0,0,0-.93.73L74,107.05h-.12L69.12,95.18,69,95a.74.74,0,0,0-.35-.35,1,1,0,0,0-.5-.18.63.63,0,0,0-.5.23.77.77,0,0,0-.21.6,2.66,2.66,0,0,0,.21.73l5,12.5a1.47,1.47,0,0,0,.47.58,1.23,1.23,0,0,0,.73.2,1.18,1.18,0,0,0,.76-.25,1.47,1.47,0,0,0,.47-.58l5-12.5.2-.73A.89.89,0,0,0,80.16,94.65Z"/><path class="cls-2" d="M59.12,99.34a4.64,4.64,0,0,0-3.33-1.2,3.75,3.75,0,0,0-1.16.17,8.64,8.64,0,0,0-.9.38,4.08,4.08,0,0,0-.63.5,5.11,5.11,0,0,0-.38.41l-.12.17h-.1V94.85a.63.63,0,0,0-.23-.5.65.65,0,0,0-.55-.2.85.85,0,0,0-.55.2.63.63,0,0,0-.23.5v13.46a.64.64,0,0,0,.23.5.86.86,0,0,0,1.1,0,.64.64,0,0,0,.23-.5v-6a2.52,2.52,0,0,1,.93-1.94,3.45,3.45,0,0,1,2.36-.82,3.09,3.09,0,0,1,2.2.8,2.57,2.57,0,0,1,.86,2v6a.63.63,0,0,0,.22.5.67.67,0,0,0,.56.2.9.9,0,0,0,.55-.2.75.75,0,0,0,.22-.5v-6A3.89,3.89,0,0,0,59.12,99.34Z"/><path class="cls-2" d="M46.42,99.37a4.33,4.33,0,0,0-3.16-1.23,5,5,0,0,0-3,.85c-.82.56-1.23,1.06-1.23,1.51a1,1,0,0,0,.21.6.63.63,0,0,0,.5.23.83.83,0,0,0,.63-.28,3.63,3.63,0,0,1,2.86-1.43,3,3,0,0,1,2.06.8,2.77,2.77,0,0,1,.82,2v.3H42.86a5.33,5.33,0,0,0-3.37.91A2.81,2.81,0,0,0,38.34,106a2.92,2.92,0,0,0,1.1,2.36,5,5,0,0,0,3.19.9,4.34,4.34,0,0,0,1.25-.17,7.38,7.38,0,0,0,1-.38,3.21,3.21,0,0,0,.65-.5,2.59,2.59,0,0,0,.4-.41l.13-.17h.1v.73a.61.61,0,0,0,.23.5.75.75,0,0,0,.55.2.9.9,0,0,0,.55-.2.64.64,0,0,0,.23-.5v-6A4,4,0,0,0,46.42,99.37ZM46.17,105a2.51,2.51,0,0,1-1,2,4.11,4.11,0,0,1-2.54.78,3.37,3.37,0,0,1-2-.5A1.63,1.63,0,0,1,40,106a1.58,1.58,0,0,1,.7-1.33,3.54,3.54,0,0,1,2.16-.51h3.29Z"/><path class="cls-2" d="M35.17,99.42a4.85,4.85,0,0,0-3.46-1.28,5,5,0,0,0-1.21.15,3.47,3.47,0,0,0-.9.38,2.55,2.55,0,0,0-.6.47,2.72,2.72,0,0,0-.38.38l-.1.18h-.1V94.88a.65.65,0,0,0-.23-.51.85.85,0,0,0-1.1,0,.55.55,0,0,0-.2.51v9.94A4.15,4.15,0,0,0,28.24,108a4.87,4.87,0,0,0,3.47,1.28A4.85,4.85,0,0,0,35.17,108a4.19,4.19,0,0,0,1.36-3.14v-2.26A4.18,4.18,0,0,0,35.17,99.42Zm-.17,5.4a2.75,2.75,0,0,1-.93,2.11,3.7,3.7,0,0,1-4.72,0,2.82,2.82,0,0,1-.93-2.11v-2.26a2.7,2.7,0,0,1,.93-2.11,3.25,3.25,0,0,1,2.36-.85,3.34,3.34,0,0,1,2.36.85,2.8,2.8,0,0,1,.93,2.11Z"/><path class="cls-2" d="M22.09,95.8a6.17,6.17,0,0,0-4.44-1.63,6.15,6.15,0,0,0-4.44,1.63A5.58,5.58,0,0,0,11.5,100v3.49a5.57,5.57,0,0,0,1.71,4.19,6.15,6.15,0,0,0,4.44,1.63,6.17,6.17,0,0,0,4.44-1.63,5.57,5.57,0,0,0,1.71-4.19V100A5.58,5.58,0,0,0,22.09,95.8Zm.08,7.66a4.19,4.19,0,0,1-1.26,3.09,4.45,4.45,0,0,1-3.26,1.23,4.37,4.37,0,0,1-3.24-1.23,4.19,4.19,0,0,1-1.26-3.09V100a4.23,4.23,0,0,1,1.26-3.09,4.49,4.49,0,0,1,3.24-1.23,4.49,4.49,0,0,1,3.26,1.23A4.23,4.23,0,0,1,22.17,100Z"/><path class="cls-2" d="M78.13,54.71v0l0,0Z"/><path class="cls-2" d="M98.87,85.62a.72.72,0,0,0-.3.3c-4,2-4.7-3.54-5.2-5.55-.78-3.14-4.47-6.2-7.28-5.15l-.15,1c1.7,1.63,4.89,7,3.39,9-2.59,3.34-2.46-1.63-3-3.26C84.33,76,76,83,81.59,87.05a22.53,22.53,0,0,0-5.22.25c-.15,0-.3.07-.3.25a.31.31,0,0,0,.3.3,20.51,20.51,0,0,1,6.43-.1,10.21,10.21,0,0,0,1.23.5.57.57,0,0,0,.68-.38.56.56,0,0,0-.35-.72c-7.51-2.82-.61-9.19.85-4.87.33,1,1.1,8.68,5.07,3.56,1.81-2.33-.63-7-2.58-9.54,6.85.53,2.83,13.88,11.37,10.72C100.68,86.44,100.05,85.09,98.87,85.62Z"/><path class="cls-2" d="M85.31,60.4c-.65-3.79,0-4.64-5.45-5.07a5.73,5.73,0,0,0-1.13-.11.92.92,0,0,0-.58.2l0,0a.54.54,0,0,0-.17.4.57.57,0,0,0,.18.4h0a.86.86,0,0,0,.6.23h.14a4.16,4.16,0,0,1,3.35,3.75c-4.79-2.46-12.8,4.22-5.92,2.84.8-.15,4.19-.58,4.49.77a.61.61,0,0,0,.68.48.6.6,0,0,0,.48-.68c-.56-2.56-4.32-1.93-6.28-1.58,1.58-.93,4.69-1.71,6.13-.8,2.41,1.5,1.83-2.34-.06-4.57,1.18.2,2.21.65,2.39,2.06.83,6.1.08,1.63,4.27,2.43,2.91.56,3.66,1.84,3.91,3.49a4.42,4.42,0,0,0-5.19-1.86c-3.07.86,2.61,2.39.7,6.51-.3-1.94-.8-4-3-4.42-4.67-.86-8.36,3.59-11,8.89a32.44,32.44,0,0,0-11.63-9.54C51.79,59.75,41.6,64.82,42,76c.33,9.24,7.58,12.45,15.42,14v-.1a.5.5,0,0,0,.55-.45.52.52,0,0,0-.45-.55C50.26,87.39,43.33,84.53,43,75.84,42.6,65.43,52.07,61,61.69,65.15a32,32,0,0,1,11.52,9.67A67.06,67.06,0,0,0,69.09,87c-1.3,5.78,7.06-.15,7.58-1.3,1.54-3.34.3-7.28-2.16-10.95.73-1.61,1.34-2.86,1.61-3.31,1.81-2.92,8.71-8.49,10.09-3.87.46,1.51.18,3.57,1.08,3.87a4.48,4.48,0,0,0,.56-7.31,3.84,3.84,0,0,1-.33-.28c1-.17,3.36.38,3.69,1,0,0,2,5.77,2.44,2.91C94.57,61.74,89.23,58.47,85.31,60.4ZM75.72,85.31c-.63,1.38-4.87,3.09-5.72,3.19-.33-1.68,2.08-8,4-12.45C76.05,79.21,77,82.55,75.72,85.31Z"/><path class="cls-2" d="M71,28.59A36.6,36.6,0,0,0,39.59,84h1.16a35.58,35.58,0,1,1,60.48,0h1.15A36.61,36.61,0,0,0,71,28.59Z"/></svg>