<svg id="Camada_1" data-name="Camada 1" xmlns="http://www.w3.org/2000/svg" viewBox="0 0 142 142"><defs><style>.cls-1{fill:#145163;}.cls-2,.cls-3,.cls-4{fill:#fff;fill-rule:evenodd;}.cls-3,.cls-4{stroke:#fff;stroke-miterlimit:10;}.cls-3{stroke-width:0.24px;}.cls-4{stroke-width:0.48px;}.cls-5{fill:#0a9c49;}.cls-6{fill:#fedf00;}.cls-7{fill:#253370;}.cls-8{fill:#cce7d4;}.cls-9{fill:#5fa9dd;}</style></defs><title>teste2</title><path class="cls-1" d="M0,0H142a0,0,0,0,1,0,0V109.86A32.14,32.14,0,0,1,109.86,142H0a0,0,0,0,1,0,0V0A0,0,0,0,1,0,0Z"/><path class="cls-2" d="M122.91,94.1a.66.66,0,0,0,.65-.6v-1a3.67,3.67,0,0,0-1.2-2.77,4.71,4.71,0,0,0-6.12,0,3.67,3.67,0,0,0-1.2,2.77v2a3.62,3.62,0,0,0,1.2,2.78,4.59,4.59,0,0,0,3.15,1.11,4.64,4.64,0,0,0,2.79-.85c.8-.55,1.2-1.06,1.2-1.51a.94.94,0,0,0-.18-.53.56.56,0,0,0-.44-.2.64.64,0,0,0-.56.27,3.42,3.42,0,0,1-2.81,1.53,3.16,3.16,0,0,1-2.15-.75,2.49,2.49,0,0,1-.85-1.87V94.1Zm-5.67-3.51a3.22,3.22,0,0,1,4.17,0,2.5,2.5,0,0,1,.82,1.87v.35h-5.79l0-.35A2.36,2.36,0,0,1,117.24,90.59Z"/><path class="cls-2" d="M112.45,88.93a.8.8,0,0,0-.49-.18.78.78,0,0,0-.49.18.57.57,0,0,0-.2.44V90h-.09l-.26-.36a3.26,3.26,0,0,0-1-.73,3.18,3.18,0,0,0-1.58-.35,4.26,4.26,0,0,0-3.06,1.13,3.66,3.66,0,0,0-1.19,2.77v1.64a3.66,3.66,0,0,0,1.19,2.77A4.4,4.4,0,0,0,108.37,98a3.53,3.53,0,0,0,1.06-.15,2.68,2.68,0,0,0,.78-.34,4.44,4.44,0,0,0,.55-.42,2.42,2.42,0,0,0,.31-.33l.11-.13h.09v1.53a2.43,2.43,0,0,1-.84,1.86,3,3,0,0,1-2.15.75,3.44,3.44,0,0,1-2.82-1.55.65.65,0,0,0-.53-.27.56.56,0,0,0-.44.2.69.69,0,0,0-.18.54c0,.44.4,1,1.2,1.5a4.64,4.64,0,0,0,2.79.85,4.52,4.52,0,0,0,3.15-1.11,3.6,3.6,0,0,0,1.2-2.77V89.37A.57.57,0,0,0,112.45,88.93Zm-1.22,5.17a2.41,2.41,0,0,1-.82,1.86,3.22,3.22,0,0,1-4.17,0,2.44,2.44,0,0,1-.82-1.86V92.46a2.36,2.36,0,0,1,.82-1.87,3.12,3.12,0,0,1,2.1-.75,3,3,0,0,1,2.07.73,2.22,2.22,0,0,1,.82,1.71Z"/><path class="cls-2" d="M100.67,89.64a3.91,3.91,0,0,0-2.84-1.06,4.33,4.33,0,0,0-2.61.75c-.74.49-1.09.93-1.09,1.33a.89.89,0,0,0,.18.53.53.53,0,0,0,.44.2.74.74,0,0,0,.55-.26,3.21,3.21,0,0,1,2.53-1.27,2.58,2.58,0,0,1,1.82.71,2.41,2.41,0,0,1,.73,1.73v.27H97.5a4.69,4.69,0,0,0-3,.8,2.47,2.47,0,0,0-1,2.08,2.5,2.5,0,0,0,1,2.08,4.32,4.32,0,0,0,2.81.8,3.72,3.72,0,0,0,1.11-.15,5.64,5.64,0,0,0,.84-.33,4.1,4.1,0,0,0,.58-.45,1.81,1.81,0,0,0,.33-.35l.11-.16h.09v.64a.58.58,0,0,0,.2.45.69.69,0,0,0,.49.18.9.9,0,0,0,.51-.18.65.65,0,0,0,.2-.45V92.28A3.52,3.52,0,0,0,100.67,89.64Zm-.29,5a2.21,2.21,0,0,1-.84,1.73,3.52,3.52,0,0,1-2.24.69,2.93,2.93,0,0,1-1.75-.44,1.44,1.44,0,0,1-.6-1.18,1.39,1.39,0,0,1,.62-1.17,3.09,3.09,0,0,1,1.91-.45h2.9Z"/><path class="cls-2" d="M91.14,85.23a.61.61,0,0,0-.51-.18.78.78,0,0,0-.49.18.53.53,0,0,0-.2.44V97.53a.55.55,0,0,0,.2.45.68.68,0,0,0,.49.18.93.93,0,0,0,.51-.18.57.57,0,0,0,.19-.45V85.67A.55.55,0,0,0,91.14,85.23Z"/><path class="cls-2" d="M86.7,85.23a.59.59,0,0,0-.51-.18.8.8,0,0,0-.49.18.56.56,0,0,0-.2.44V97.53a.58.58,0,0,0,.2.45.69.69,0,0,0,.49.18A.9.9,0,0,0,86.7,98a.65.65,0,0,0,.2-.45V85.67A.56.56,0,0,0,86.7,85.23Z"/><path class="cls-2" d="M82.4,85.47a1,1,0,0,0-1.33,0,1,1,0,0,0-.25.64.92.92,0,0,0,1.58.67,1.06,1.06,0,0,0,.24-.67A1,1,0,0,0,82.4,85.47Z"/><path class="cls-2" d="M82.18,88.93a.71.71,0,0,0-.51-.18.78.78,0,0,0-.49.18.57.57,0,0,0-.2.44v8.16a.58.58,0,0,0,.2.45.68.68,0,0,0,.49.18.93.93,0,0,0,.51-.18.58.58,0,0,0,.2-.45V89.37A.57.57,0,0,0,82.18,88.93Z"/><path class="cls-2" d="M79.09,85.47a.59.59,0,0,0-.44-.2.9.9,0,0,0-.82.64L73.62,96.43h-.11L69.34,85.94l-.07-.16a.77.77,0,0,0-.31-.31.8.8,0,0,0-.44-.15.55.55,0,0,0-.45.2.69.69,0,0,0-.18.53,2.34,2.34,0,0,0,.18.64l4.44,11a1.3,1.3,0,0,0,.42.51,1.08,1.08,0,0,0,.64.18,1,1,0,0,0,.67-.22,1.39,1.39,0,0,0,.42-.51l4.43-11,.18-.65A.75.75,0,0,0,79.09,85.47Z"/><path class="cls-2" d="M60.51,89.62a4.11,4.11,0,0,0-2.95-1.07,3.2,3.2,0,0,0-1,.16,6.76,6.76,0,0,0-.8.33,3.54,3.54,0,0,0-.55.44c-.11.12-.22.23-.33.36l-.12.16h-.08V85.65a.56.56,0,0,0-.2-.44A.58.58,0,0,0,54,85a.72.72,0,0,0-.49.18.56.56,0,0,0-.2.44V97.53a.58.58,0,0,0,.2.45.78.78,0,0,0,.49.18.8.8,0,0,0,.49-.18.58.58,0,0,0,.2-.45V92.28a2.22,2.22,0,0,1,.82-1.71,3,3,0,0,1,2.08-.73,2.76,2.76,0,0,1,1.95.71,2.28,2.28,0,0,1,.76,1.73v5.25a.55.55,0,0,0,.2.45.6.6,0,0,0,.48.18.78.78,0,0,0,.49-.18.65.65,0,0,0,.2-.45V92.28A3.48,3.48,0,0,0,60.51,89.62Z"/><path class="cls-2" d="M49.29,89.64a3.87,3.87,0,0,0-2.79-1.09,4.42,4.42,0,0,0-2.62.76c-.73.49-1.09.93-1.09,1.33a.89.89,0,0,0,.18.53.57.57,0,0,0,.44.2.76.76,0,0,0,.56-.24,3.19,3.19,0,0,1,2.53-1.27,2.55,2.55,0,0,1,1.81.71,2.42,2.42,0,0,1,.74,1.73v.27H46.14a4.69,4.69,0,0,0-3,.8,2.47,2.47,0,0,0-1,2.08,2.56,2.56,0,0,0,1,2.08,4.36,4.36,0,0,0,2.82.8,3.77,3.77,0,0,0,1.11-.15,5.64,5.64,0,0,0,.84-.33,3.21,3.21,0,0,0,.58-.45,2.89,2.89,0,0,0,.35-.35l.11-.16H49v.64a.58.58,0,0,0,.2.45.69.69,0,0,0,.49.18A.78.78,0,0,0,50.2,98a.58.58,0,0,0,.2-.45V92.28A3.52,3.52,0,0,0,49.29,89.64Zm-.22,5a2.19,2.19,0,0,1-.85,1.73,3.53,3.53,0,0,1-2.23.69,3,3,0,0,1-1.76-.44,1.47,1.47,0,0,1-.6-1.18,1.42,1.42,0,0,1,.63-1.18,3.08,3.08,0,0,1,1.9-.44h2.91Z"/><path class="cls-2" d="M39.35,89.68a4.54,4.54,0,0,0-4.12-1,2.71,2.71,0,0,0-.8.33,2.45,2.45,0,0,0-.53.42,2.57,2.57,0,0,0-.33.33l-.09.16h-.09V85.67a.56.56,0,0,0-.2-.44.73.73,0,0,0-1,0,.46.46,0,0,0-.17.44v8.78a3.66,3.66,0,0,0,1.19,2.77,4.68,4.68,0,0,0,6.12,0,3.67,3.67,0,0,0,1.2-2.77v-2A3.68,3.68,0,0,0,39.35,89.68Zm-.15,4.77a2.43,2.43,0,0,1-.82,1.87,3.27,3.27,0,0,1-4.17,0,2.5,2.5,0,0,1-.82-1.87v-2a2.43,2.43,0,0,1,.82-1.87,2.91,2.91,0,0,1,2.08-.75,3,3,0,0,1,2.09.75,2.5,2.5,0,0,1,.82,1.87Z"/><path class="cls-2" d="M27.8,86.49a5.47,5.47,0,0,0-3.92-1.44A5.48,5.48,0,0,0,20,86.49a4.91,4.91,0,0,0-1.51,3.7v3.09A4.89,4.89,0,0,0,20,97a5.48,5.48,0,0,0,3.93,1.44A5.47,5.47,0,0,0,27.8,97a4.89,4.89,0,0,0,1.51-3.7V90.19A4.91,4.91,0,0,0,27.8,86.49Zm.07,6.76A3.72,3.72,0,0,1,26.76,96a4,4,0,0,1-2.88,1.09A3.86,3.86,0,0,1,21,96a3.64,3.64,0,0,1-1.11-2.73V90.17A3.64,3.64,0,0,1,21,87.44a4,4,0,0,1,2.86-1.08,4,4,0,0,1,2.88,1.08,3.72,3.72,0,0,1,1.11,2.73Z"/><path class="cls-3" d="M95.61,77.49a.84.84,0,0,0-.26.27c-3.51,1.75-4.15-3.13-4.59-4.9-.69-2.78-4-5.48-6.43-4.55l-.14.87c1.51,1.44,4.33,6.18,3,7.91-2.29,3-2.18-1.44-2.66-2.88-1.76-5.23-9.1,1-4.17,4.55a19.31,19.31,0,0,0-4.61.22c-.14,0-.27.06-.27.22a.27.27,0,0,0,.27.26,18.37,18.37,0,0,1,5.67-.08,10.34,10.34,0,0,0,1.09.44.51.51,0,0,0,.29-1c-6.63-2.48-.54-8.11.75-4.3.29.89,1,7.67,4.48,3.15,1.6-2.06-.55-6.23-2.28-8.43,6,.47,2.5,12.27,10,9.47C97.21,78.22,96.66,77,95.61,77.49Z"/><path class="cls-3" d="M83.64,55.22c-.58-3.35,0-4.1-4.81-4.48a5,5,0,0,0-1-.1.79.79,0,0,0-.51.18l0,0a.53.53,0,0,0-.15.36.5.5,0,0,0,.16.35h0a.71.71,0,0,0,.53.21H78a3.68,3.68,0,0,1,3,3.31c-4.23-2.18-11.31,3.72-5.23,2.5.71-.13,3.7-.51,4,.69a.52.52,0,0,0,1-.18c-.49-2.26-3.82-1.7-5.55-1.39,1.4-.82,4.15-1.51,5.42-.71,2.12,1.33,1.61-2.07-.05-4,1,.18,2,.58,2.11,1.82.73,5.39.06,1.44,3.77,2.15,2.57.49,3.24,1.62,3.46,3.08a3.93,3.93,0,0,0-4.59-1.64c-2.71.76,2.3,2.11.62,5.75-.27-1.71-.71-3.55-2.66-3.91-4.13-.75-7.39,3.17-9.74,7.85a28.8,28.8,0,0,0-10.27-8.42C54,54.65,45,59.13,45.39,69c.28,8.16,6.69,11,13.61,12.4v-.09a.45.45,0,0,0,.49-.4.45.45,0,0,0-.4-.49c-6.41-1.33-12.53-3.86-12.82-11.53-.35-9.2,8-13.15,16.5-9.45A28.32,28.32,0,0,1,73,68a60.18,60.18,0,0,0-3.64,10.8c-1.15,5.1,6.24-.13,6.7-1.15,1.35-2.95.27-6.43-1.91-9.67.65-1.42,1.18-2.53,1.42-2.93,1.6-2.57,7.7-7.49,8.92-3.41.4,1.33.15,3.15,1,3.41a3.94,3.94,0,0,0,.49-6.45s-.18-.13-.29-.24c.84-.16,3,.33,3.26.84,0,0,1.75,5.1,2.15,2.57C91.82,56.4,87.1,53.52,83.64,55.22Zm-8.47,22c-.56,1.22-4.3,2.73-5.06,2.82C69.82,78.55,72,73,73.66,69,75.46,71.83,76.3,74.78,75.17,77.22Z"/><path class="cls-4" d="M71,27.13A32.32,32.32,0,0,0,43.26,76h1A31.43,31.43,0,1,1,97.7,76h1A32.31,32.31,0,0,0,71,27.13Z"/><path class="cls-5" d="M76.41,113.67a1.2,1.2,0,0,1-1.2,1.2H66.79a1.2,1.2,0,0,1-1.2-1.2v-5.41a1.2,1.2,0,0,1,1.2-1.2h8.42a1.2,1.2,0,0,1,1.2,1.2Z"/><path class="cls-6" d="M75.43,111,71,114.31,66.57,111,71,107.62Z"/><circle class="cls-7" cx="71" cy="110.94" r="1.94"/><path class="cls-8" d="M69.3,110a2.18,2.18,0,0,0-.2.61A4.88,4.88,0,0,1,72.63,112a2,2,0,0,0,.27-.6A5.57,5.57,0,0,0,69.3,110Z"/><path class="cls-9" d="M70,111h.3v.3H70Zm.6.3h.3v.3h-.3Zm1.2.6h.3v.3h-.3Zm-.9.3h.3v.3h-.3Zm.9-1.8h.3v.3h-.3Z"/></svg>