<svg id="Camada_1" data-name="Camada 1" xmlns="http://www.w3.org/2000/svg" viewBox="0 0 142 142"><defs><style>.cls-1{fill:#145163;}.cls-10,.cls-2,.cls-3,.cls-4{fill:#fff;}.cls-2,.cls-3,.cls-4{fill-rule:evenodd;}.cls-3,.cls-4{stroke:#fff;stroke-miterlimit:10;}.cls-3{stroke-width:0.24px;}.cls-4{stroke-width:0.48px;}.cls-5{fill:#0a9c49;}.cls-6{fill:#fedf00;}.cls-7{fill:#253370;}.cls-8{fill:#cce7d4;}.cls-9{fill:#5fa9dd;}</style></defs><title>teste</title><path class="cls-1" d="M0,0H142a0,0,0,0,1,0,0V109.86A32.14,32.14,0,0,1,109.86,142H0a0,0,0,0,1,0,0V0A0,0,0,0,1,0,0Z"/><path class="cls-2" d="M122.91,85.61a.66.66,0,0,0,.65-.6V84a3.67,3.67,0,0,0-1.2-2.77,4.71,4.71,0,0,0-6.12,0A3.67,3.67,0,0,0,115,84v2a3.61,3.61,0,0,0,1.2,2.77,4.59,4.59,0,0,0,3.15,1.11,4.64,4.64,0,0,0,2.79-.85c.8-.55,1.2-1.06,1.2-1.5a.94.94,0,0,0-.18-.54.56.56,0,0,0-.44-.2.64.64,0,0,0-.56.27,3.42,3.42,0,0,1-2.81,1.53,3.16,3.16,0,0,1-2.15-.75,2.49,2.49,0,0,1-.85-1.87v-.35Zm-5.67-3.5a3.22,3.22,0,0,1,4.17,0,2.46,2.46,0,0,1,.82,1.86v.35h-5.79l0-.35A2.33,2.33,0,0,1,117.24,82.11Z"/><path class="cls-2" d="M112.45,80.44a.8.8,0,0,0-.49-.18.78.78,0,0,0-.49.18.58.58,0,0,0-.2.45v.64h-.09l-.26-.36a3.26,3.26,0,0,0-1-.73,3.3,3.3,0,0,0-1.58-.35,4.26,4.26,0,0,0-3.06,1.13A3.66,3.66,0,0,0,104.09,84v1.64a3.66,3.66,0,0,0,1.19,2.77,4.35,4.35,0,0,0,3.09,1.11,3.53,3.53,0,0,0,1.06-.15,2.68,2.68,0,0,0,.78-.34,4.44,4.44,0,0,0,.55-.42,2.42,2.42,0,0,0,.31-.33l.11-.13h.09v1.53a2.43,2.43,0,0,1-.84,1.86,3,3,0,0,1-2.15.75,3.44,3.44,0,0,1-2.82-1.55.64.64,0,0,0-.53-.26.53.53,0,0,0-.44.2.65.65,0,0,0-.18.53c0,.44.4,1,1.2,1.51a4.7,4.7,0,0,0,2.79.84,4.52,4.52,0,0,0,3.15-1.11,3.6,3.6,0,0,0,1.2-2.77V80.89A.58.58,0,0,0,112.45,80.44Zm-1.22,5.17a2.39,2.39,0,0,1-.82,1.86,3.22,3.22,0,0,1-4.17,0,2.43,2.43,0,0,1-.82-1.86V84a2.33,2.33,0,0,1,.82-1.86,3.13,3.13,0,0,1,2.1-.76,3.09,3.09,0,0,1,2.07.73,2.23,2.23,0,0,1,.82,1.71Z"/><path class="cls-2" d="M100.67,81.15a3.91,3.91,0,0,0-2.84-1.06,4.4,4.4,0,0,0-2.61.75c-.74.49-1.09.93-1.09,1.33a.89.89,0,0,0,.18.53.53.53,0,0,0,.44.2.74.74,0,0,0,.55-.26,3.21,3.21,0,0,1,2.53-1.27,2.58,2.58,0,0,1,1.82.71,2.41,2.41,0,0,1,.73,1.73v.27H97.5a4.76,4.76,0,0,0-3,.8,2.48,2.48,0,0,0-1,2.08,2.54,2.54,0,0,0,1,2.09,4.37,4.37,0,0,0,2.81.79,3.72,3.72,0,0,0,1.11-.15,5.64,5.64,0,0,0,.84-.33,4.1,4.1,0,0,0,.58-.45,1.81,1.81,0,0,0,.33-.35l.11-.16h.09v.65a.57.57,0,0,0,.2.44.69.69,0,0,0,.49.18.9.9,0,0,0,.51-.18.65.65,0,0,0,.2-.44V83.79A3.52,3.52,0,0,0,100.67,81.15Zm-.29,5a2.24,2.24,0,0,1-.84,1.73,3.58,3.58,0,0,1-2.24.68,2.93,2.93,0,0,1-1.75-.44A1.44,1.44,0,0,1,95,87a1.39,1.39,0,0,1,.62-1.17,3,3,0,0,1,1.91-.44h2.9Z"/><path class="cls-2" d="M91.14,76.74a.65.65,0,0,0-.51-.18.78.78,0,0,0-.49.18.53.53,0,0,0-.2.44V89.05a.54.54,0,0,0,.2.44.68.68,0,0,0,.49.18.93.93,0,0,0,.51-.18.56.56,0,0,0,.19-.44V77.18A.55.55,0,0,0,91.14,76.74Z"/><path class="cls-2" d="M86.7,76.74a.62.62,0,0,0-.51-.18.8.8,0,0,0-.49.18.56.56,0,0,0-.2.44V89.05a.57.57,0,0,0,.2.44.69.69,0,0,0,.49.18.9.9,0,0,0,.51-.18.65.65,0,0,0,.2-.44V77.18A.56.56,0,0,0,86.7,76.74Z"/><path class="cls-2" d="M82.4,77a1,1,0,0,0-1.33,0,1,1,0,0,0-.25.65,1,1,0,0,0,.25.66,1,1,0,0,0,1.33,0,1,1,0,0,0,.24-.66A1,1,0,0,0,82.4,77Z"/><path class="cls-2" d="M82.18,80.44a.71.71,0,0,0-.51-.18.78.78,0,0,0-.49.18.58.58,0,0,0-.2.45v8.16a.57.57,0,0,0,.2.44.68.68,0,0,0,.49.18.93.93,0,0,0,.51-.18.57.57,0,0,0,.2-.44V80.89A.58.58,0,0,0,82.18,80.44Z"/><path class="cls-2" d="M79.09,77a.59.59,0,0,0-.44-.2.9.9,0,0,0-.82.65L73.62,87.94h-.11L69.34,77.45l-.07-.16A.77.77,0,0,0,69,77a.8.8,0,0,0-.44-.15.55.55,0,0,0-.45.2.69.69,0,0,0-.18.53,2.34,2.34,0,0,0,.18.64l4.44,11a1.37,1.37,0,0,0,.42.51,1.07,1.07,0,0,0,.64.17,1,1,0,0,0,.67-.22,1.39,1.39,0,0,0,.42-.51l4.43-11,.18-.65A.76.76,0,0,0,79.09,77Z"/><path class="cls-2" d="M60.51,81.13a4.11,4.11,0,0,0-2.95-1.06,3.19,3.19,0,0,0-1,.15,6.76,6.76,0,0,0-.8.33,3.58,3.58,0,0,0-.55.45c-.11.11-.22.22-.33.35l-.12.16h-.08V77.16a.56.56,0,0,0-.2-.44.58.58,0,0,0-.49-.18.78.78,0,0,0-.49.18.56.56,0,0,0-.2.44V89.05a.57.57,0,0,0,.2.44.78.78,0,0,0,.49.18.8.8,0,0,0,.49-.18.57.57,0,0,0,.2-.44V83.79a2.23,2.23,0,0,1,.82-1.71,3.09,3.09,0,0,1,2.08-.73,2.76,2.76,0,0,1,1.95.71,2.28,2.28,0,0,1,.76,1.73v5.26a.54.54,0,0,0,.2.44.6.6,0,0,0,.48.18.78.78,0,0,0,.49-.18.65.65,0,0,0,.2-.44V83.79A3.48,3.48,0,0,0,60.51,81.13Z"/><path class="cls-2" d="M49.29,81.15a3.82,3.82,0,0,0-2.79-1.08,4.34,4.34,0,0,0-2.62.75c-.73.49-1.09.93-1.09,1.33a.89.89,0,0,0,.18.53.54.54,0,0,0,.44.2.76.76,0,0,0,.56-.24,3.19,3.19,0,0,1,2.53-1.27,2.55,2.55,0,0,1,1.81.71,2.42,2.42,0,0,1,.74,1.73v.27H46.14a4.76,4.76,0,0,0-3,.8,2.48,2.48,0,0,0-1,2.08,2.59,2.59,0,0,0,1,2.09,4.42,4.42,0,0,0,2.82.79,3.77,3.77,0,0,0,1.11-.15,5.64,5.64,0,0,0,.84-.33,3.21,3.21,0,0,0,.58-.45,2.89,2.89,0,0,0,.35-.35l.11-.16H49v.65a.57.57,0,0,0,.2.44.69.69,0,0,0,.49.18.78.78,0,0,0,.49-.18.57.57,0,0,0,.2-.44V83.79A3.52,3.52,0,0,0,49.29,81.15Zm-.22,5a2.19,2.19,0,0,1-.85,1.73,3.53,3.53,0,0,1-2.23.69,3,3,0,0,1-1.76-.44,1.47,1.47,0,0,1-.6-1.18,1.4,1.4,0,0,1,.63-1.17,3.07,3.07,0,0,1,1.9-.45h2.91Z"/><path class="cls-2" d="M39.35,81.2a4.22,4.22,0,0,0-3.06-1.13,4.27,4.27,0,0,0-1.06.13,3,3,0,0,0-.8.33,2.45,2.45,0,0,0-.53.42,2.57,2.57,0,0,0-.33.33l-.09.16h-.09V77.18a.56.56,0,0,0-.2-.44.73.73,0,0,0-1,0,.46.46,0,0,0-.17.44V86a3.67,3.67,0,0,0,1.19,2.78,4.71,4.71,0,0,0,6.12,0A3.68,3.68,0,0,0,40.55,86V84A3.67,3.67,0,0,0,39.35,81.2ZM39.2,86a2.43,2.43,0,0,1-.82,1.87,3.27,3.27,0,0,1-4.17,0A2.5,2.5,0,0,1,33.39,86V84a2.39,2.39,0,0,1,.82-1.86,2.92,2.92,0,0,1,2.08-.76,3,3,0,0,1,2.09.76A2.46,2.46,0,0,1,39.2,84Z"/><path class="cls-2" d="M27.8,78a5.47,5.47,0,0,0-3.92-1.44A5.48,5.48,0,0,0,20,78a4.93,4.93,0,0,0-1.51,3.71v3.08A4.89,4.89,0,0,0,20,88.49a5.44,5.44,0,0,0,3.93,1.44,5.43,5.43,0,0,0,3.92-1.44,4.89,4.89,0,0,0,1.51-3.7V81.71A4.93,4.93,0,0,0,27.8,78Zm.07,6.77a3.7,3.7,0,0,1-1.11,2.72,3.93,3.93,0,0,1-2.88,1.09A3.82,3.82,0,0,1,21,87.49a3.62,3.62,0,0,1-1.11-2.72V81.68A3.62,3.62,0,0,1,21,79a3.94,3.94,0,0,1,2.86-1.09A3.93,3.93,0,0,1,26.76,79a3.7,3.7,0,0,1,1.11,2.72Z"/><path class="cls-3" d="M95.61,69a.84.84,0,0,0-.26.27c-3.51,1.75-4.15-3.13-4.59-4.9-.69-2.77-4-5.48-6.43-4.55l-.14.87c1.51,1.44,4.33,6.18,3,7.91-2.29,3-2.18-1.44-2.66-2.88-1.76-5.23-9.1,1-4.17,4.55a19.31,19.31,0,0,0-4.61.22c-.14,0-.27.07-.27.22a.27.27,0,0,0,.27.27,18.08,18.08,0,0,1,5.67-.09,8.56,8.56,0,0,0,1.09.44.51.51,0,0,0,.6-.33.5.5,0,0,0-.31-.64c-6.63-2.49-.54-8.12.75-4.31.29.89,1,7.68,4.48,3.15,1.6-2.06-.55-6.23-2.28-8.42,6,.46,2.5,12.26,10,9.46C97.21,69.73,96.66,68.54,95.61,69Z"/><path class="cls-3" d="M83.64,46.73c-.58-3.34,0-4.1-4.81-4.47a4.52,4.52,0,0,0-1-.11.75.75,0,0,0-.51.19l0,0a.49.49,0,0,0-.15.35.48.48,0,0,0,.16.35h0a.75.75,0,0,0,.53.2H78a3.69,3.69,0,0,1,3,3.31c-4.23-2.17-11.31,3.73-5.23,2.51.71-.14,3.7-.51,4,.68a.52.52,0,0,0,1-.17c-.49-2.27-3.82-1.71-5.55-1.4,1.4-.82,4.15-1.51,5.42-.71,2.12,1.33,1.61-2.06-.05-4,1,.18,2,.58,2.11,1.82.73,5.39.06,1.44,3.77,2.15,2.57.49,3.24,1.62,3.46,3.08a3.93,3.93,0,0,0-4.59-1.64c-2.71.76,2.3,2.11.62,5.75-.27-1.71-.71-3.55-2.66-3.91-4.13-.75-7.39,3.18-9.74,7.85a28.8,28.8,0,0,0-10.27-8.42c-9.15-4-18.16.51-17.8,10.35.28,8.16,6.69,11,13.61,12.4v-.09a.44.44,0,0,0,.49-.4.45.45,0,0,0-.4-.49c-6.41-1.33-12.53-3.85-12.82-11.53-.35-9.2,8-13.15,16.5-9.44A28.18,28.18,0,0,1,73,59.46a60.18,60.18,0,0,0-3.64,10.8c-1.15,5.1,6.24-.13,6.7-1.15,1.35-3,.27-6.43-1.91-9.67.65-1.42,1.18-2.53,1.42-2.93,1.6-2.57,7.7-7.49,8.92-3.41.4,1.33.15,3.15,1,3.41a3.94,3.94,0,0,0,.49-6.45s-.18-.13-.29-.24c.84-.16,3,.33,3.26.84,0,0,1.75,5.1,2.15,2.57C91.82,47.91,87.1,45,83.64,46.73Zm-8.47,22c-.56,1.22-4.3,2.73-5.06,2.82-.29-1.49,1.84-7,3.55-11C75.46,63.34,76.3,66.29,75.17,68.73Z"/><path class="cls-4" d="M71,18.64a32.33,32.33,0,0,0-27.74,48.9h1a31.43,31.43,0,1,1,53.42,0h1a32.29,32.29,0,0,0-11.2-44.3A32,32,0,0,0,71,18.64Z"/><path class="cls-5" d="M72.41,116.18a1.21,1.21,0,0,1-1.2,1.21H62.79a1.21,1.21,0,0,1-1.2-1.21v-5.41a1.2,1.2,0,0,1,1.2-1.2h8.42a1.2,1.2,0,0,1,1.2,1.2Z"/><path class="cls-6" d="M71.43,113.48,67,116.82l-4.43-3.34L67,110.13Z"/><circle class="cls-7" cx="67" cy="113.46" r="1.94"/><path class="cls-8" d="M65.3,112.54a2.18,2.18,0,0,0-.2.61,4.88,4.88,0,0,1,3.53,1.38,2,2,0,0,0,.27-.6,5.63,5.63,0,0,0-3.6-1.39Z"/><path class="cls-9" d="M66,113.55h.3v.3H66Zm.6.3h.3v.3h-.3Zm1.2.6h.3v.3h-.3Zm-.9.3h.3v.3h-.3Zm.9-1.8h.3v.3h-.3Z"/><path class="cls-10" d="M34.45,110.09h1.32c1.08,0,1.6.55,1.6,1.73v.44c0,1.09-.33,1.9-1.65,1.9h-.5v3.2h-.77Zm.77,3.41h.43c.83,0,.94-.5.94-1.26v-.39c0-.58-.12-1.1-.87-1.1h-.5Z"/><path class="cls-10" d="M42.4,114v3.39h-.77v-7.27H42.9c1.09,0,1.62.47,1.62,1.68v.33c0,1-.34,1.39-.73,1.53.46.17.67.52.67,1.49a19.67,19.67,0,0,0,.07,2.24h-.75a17.23,17.23,0,0,1-.08-2.18c0-.94-.13-1.21-.85-1.21Zm0-.66h.47c.69,0,.88-.4.88-1.17v-.33c0-.66-.19-1.06-.91-1.06H42.4Z"/><path class="cls-10" d="M51.3,113.84H49.67v2.81h1.85l-.1.71H48.9v-7.27h2.5v.72H49.67v2.32H51.3Z"/><path class="cls-10" d="M56.56,115l-.35,2.32h-.78l1.19-7.27h1.11L59,117.36h-.81L57.78,115Zm1.12-.71c-.25-1.6-.43-2.84-.5-3.52h0c0,.56-.29,2.19-.48,3.52Zm1.12-5.79-1.28,1.08h-.75l1-1.08Z"/><path class="cls-10" d="M78.7,115.28v.24c0,.93-.17,1.94-1.48,1.94s-1.48-.89-1.48-2v-3.7c0-1.16.5-1.8,1.49-1.8,1.21,0,1.43.86,1.43,1.82v.28h-.78v-.34c0-.58-.09-1.06-.67-1.06s-.68.44-.68,1.08v3.77c0,.73.16,1.21.71,1.21s.67-.49.67-1.18v-.3Z"/><path class="cls-10" d="M85.32,113.84H83.69v2.81h1.85l-.1.71H82.92v-7.27h2.49v.72H83.69v2.32h1.63Z"/><path class="cls-10" d="M90.58,115l-.35,2.32h-.78l1.19-7.27h1.1L93,117.36h-.81L91.8,115Zm1.12-.71c-.25-1.6-.43-2.83-.5-3.52h0c0,.56-.29,2.19-.49,3.52Z"/><path class="cls-10" d="M97.86,114v3.39h-.77v-7.27h1.27c1.09,0,1.63.48,1.63,1.68v.33c0,1-.35,1.39-.74,1.53.46.17.67.52.67,1.49a19.67,19.67,0,0,0,.07,2.24h-.75a17.23,17.23,0,0,1-.08-2.18c0-.94-.13-1.21-.85-1.21Zm0-.66h.47c.7,0,.88-.4.88-1.17v-.33c0-.66-.18-1.06-.91-1.06h-.44Z"/><path class="cls-10" d="M105.15,115l-.35,2.32H104l1.19-7.27h1.1l1.24,7.27h-.81l-.37-2.32Zm1.12-.71c-.25-1.6-.44-2.83-.5-3.52h0c0,.56-.28,2.19-.48,3.52Zm1.12-5.79-1.29,1.08h-.75l1.06-1.08Z"/></svg>