<?xml version="1.0" encoding="utf-8"?>
<!-- Generator: Adobe Illustrator 23.0.5, SVG Export Plug-In . SVG Version: 6.00 Build 0)  -->
<svg version="1.1" id="Layer_1" xmlns="http://www.w3.org/2000/svg" xmlns:xlink="http://www.w3.org/1999/xlink" x="0px" y="0px"
	 viewBox="0 0 800 800" style="enable-background:new 0 0 800 800;" xml:space="preserve">
<style type="text/css">
	.st0{fill:#2C3F58;}
</style>
<g>
	<g>
		<g>
			<path class="st0" d="M413.3,453.3c-47.1,0-80,32.9-80,80v13.3c0,64.8,36.6,106.7,93.3,106.7c56.7,0,93.3-41.9,93.3-106.7v-13.3
				c0-47.1-32.9-80-80-80H413.3z M493.3,533.3v13.3c0,24.1-6.5,80-66.7,80c-60.2,0-66.7-55.9-66.7-80v-13.3
				c0-32.4,20.9-53.3,53.3-53.3H440C472.4,480,493.3,500.9,493.3,533.3z"/>
			<path class="st0" d="M400.4,533.3h-0.1c-7.3,0-13.3,6-13.3,13.3c0,7.4,6,13.3,13.4,13.3c7.4,0,13.3-6,13.3-13.3
				C413.7,539.3,407.8,533.3,400.4,533.3z"/>
			<path class="st0" d="M465.6,360c7.4,0.5,13.8-4.9,14.3-12.3l13.3-173.1c3-31.7,45.6-67.9,80.1-67.9H600c35.1,0,77.7,36,80,67.7
				l13.3,173.3c0.5,7,6.4,12.3,13.3,12.3c0.3,0,0.7,0,1,0c7.3-0.6,12.8-7,12.3-14.3l-13.3-173.3C703.1,123.5,644,80,600,80h-26.7
				c-48.5,0-102.3,46.5-106.6,92.3l-13.3,173.3C452.8,353,458.3,359.4,465.6,360z"/>
			<path class="st0" d="M586,169.1c-1.8-5.5-6.9-9.1-12.6-9.1c-5.7,0-10.8,3.7-12.7,9.1c-10,30.1-39.5,30.9-40.7,30.9
				c-7.4,0-13.3,6-13.3,13.3v53.3c0,44.5,30.4,106.7,80,106.7c49.6,0,80-62.1,80-106.7v-53.3c0-7.4-6-13.3-13.3-13.3
				C652.8,200,596,199.2,586,169.1z M640,266.7c0,36.2-23.8,80-53.3,80c-29.5,0-53.3-43.8-53.3-80V225c13.1-3,29.2-10.4,41-25.5
				c18.7,18.7,48.5,24.5,65.7,26.3L640,266.7L640,266.7z"/>
			<path class="st0" d="M266.7,186.7H280c7.4,0,13.3-6,13.3-13.3s-6-13.3-13.3-13.3h-13.3c-7.4,0-13.3,6-13.3,13.3
				C253.3,180.7,259.3,186.7,266.7,186.7z"/>
			<path class="st0" d="M453.7,560c7.4,0,13.3-6,13.3-13.3s-6-13.3-13.3-13.3h-0.1c-7.3,0-13.3,6-13.3,13.3
				C440.3,554,446.4,560,453.7,560z"/>
			<path class="st0" d="M133.8,210c2.5,25.6,13.7,48.2,14.2,49.3c12.1,24.2,30.4,60.7,91.9,60.7s79.8-36.5,91.9-60.7
				c0.5-1.1,11.7-23.6,14.2-49.3c8.2-4.5,13.8-13.3,13.8-23.4V160c0-9.9-5.4-18.5-13.3-23.1v-3.6c0-44.1-35.9-80-80-80h-53.3
				c-44.1,0-80,35.9-80,80v3.6c-8,4.6-13.3,13.2-13.3,23.1v26.7C120,196.7,125.6,205.5,133.8,210z M146.7,160
				c7.4,0,13.3-6,13.3-13.3v-13.3c0-29.4,23.9-53.3,53.3-53.3h53.3c29.4,0,53.3,23.9,53.3,53.3v13.3c0,7.4,6,13.3,13.3,13.3v26.7
				c-7.4,0-13.3,6-13.3,13.3c0,23.1-11.8,47.1-11.9,47.4c-13.9,27.8-26.1,46-68.1,46c-42,0-54.2-18.2-68.1-45.9
				c-0.1-0.2-11.9-24.3-11.9-47.4c0-7.4-6-13.3-13.3-13.3L146.7,160L146.7,160z"/>
			<path class="st0" d="M466.7,666.7c-2.6,0-5.2,0.8-7.4,2.2l-32.6,21.7l-32.6-21.7c-2.2-1.5-4.8-2.2-7.4-2.2
				c-77.1,0-93.3,36.3-93.3,66.7c0,7.4,6,13.3,13.3,13.3c7.4,0,13.3-6,13.3-13.3c0-10.7,0-38.8,62.7-40l36.6,24.4
				c4.5,3,10.3,3,14.8,0l36.6-24.4c62.7,1.1,62.7,29.3,62.7,40c0,7.4,6,13.3,13.3,13.3c7.4,0,13.3-6,13.3-13.3
				C560,702.9,543.8,666.7,466.7,666.7z"/>
			<path class="st0" d="M707.5,506.7L707.5,506.7c-7.4,0-13.4,5.9-13.4,13.3l-0.8,213.3c0,7.4,5.9,13.4,13.3,13.4h0.1
				c7.3,0,13.3-5.9,13.3-13.3l0.8-213.3C720.9,512.7,714.9,506.7,707.5,506.7z"/>
			<path class="st0" d="M200,186.7h13.3c7.4,0,13.3-6,13.3-13.3s-6-13.3-13.3-13.3H200c-7.4,0-13.3,6-13.3,13.3
				C186.7,180.7,192.6,186.7,200,186.7z"/>
			<path class="st0" d="M306.4,429.3l11.2-55.7c67.3,1.5,115.8,18.3,130.6,45.6c3.5,6.5,11.6,8.9,18.1,5.3
				c6.5-3.5,8.9-11.6,5.3-18.1c-20.9-38.5-79.2-59.6-164.1-59.6c-6.6-0.1-12.6,4.2-13.9,10.7L280.3,424c-1.4,7.2,3.2,14.3,10.5,15.7
				c0.9,0.2,1.8,0.3,2.6,0.3C299.6,440,305.1,435.6,306.4,429.3z"/>
			<path class="st0" d="M767.3,413.3c-26.1-26.1-65.4-39.9-113.6-39.9c-7.7,0.1-13.7,5.8-13.7,13.3c0,2.7-0.9,66.5-53.3,66.5
				c-52.4,0-53.3-63.8-53.3-66.5c0-7.3-6-13.3-13.3-13.3c-7.4,0-13.3,6-13.3,13.3c0,29.8,14.4,84.1,66.7,92.1v67.7
				c0,7.4,6,13.3,13.3,13.3c7.4,0,13.3-6,13.3-13.3v-67.8c45-6.9,61.9-48,65.8-78.4c35.4,2,63.8,12.8,82.7,31.7
				c16.1,16,24.9,37.7,24.9,61.1v213.3c0,7.4,6,13.3,13.3,13.3c7.4,0,13.3-6,13.3-13.3V493.3C800,462.8,788.4,434.4,767.3,413.3z"/>
			<path class="st0" d="M240,346.7c-14.7,0-26.7,12-26.7,26.7c0,9.8,5.4,18.3,13.3,23v97c0,7.4,6,13.3,13.3,13.3
				c7.4,0,13.3-6,13.3-13.3v-97c7.9-4.6,13.3-13.1,13.3-23C266.7,358.6,254.7,346.7,240,346.7z"/>
			<path class="st0" d="M93.3,506.7c-7.4,0-13.3,6-13.3,13.3v213.3c0,7.4,6,13.3,13.3,13.3c7.4,0,13.3-6,13.3-13.3V520
				C106.7,512.6,100.7,506.7,93.3,506.7z"/>
			<path class="st0" d="M186.4,357.5c-1.3-6.5-7.6-10.6-13.9-10.6c-70,0-123.6,15-150.9,42.3C7.2,403.3,0,420.5,0,440v266.7
				C0,714,6,720,13.3,720c7.4,0,13.3-6,13.3-13.3V440c0-12.4,4.5-22.9,13.7-32c20.8-20.7,65-33.1,122.2-34.3l64.4,309.1
				c1.5,7.2,8.6,11.8,15.8,10.3c7.2-1.5,11.8-8.6,10.3-15.8L186.4,357.5z"/>
		</g>
	</g>
</g>
</svg>
