<?xml version="1.0" encoding="utf-8"?>
<!-- Generator: Adobe Illustrator 23.0.5, SVG Export Plug-In . SVG Version: 6.00 Build 0)  -->
<svg version="1.1" id="Layer_1" xmlns="http://www.w3.org/2000/svg" xmlns:xlink="http://www.w3.org/1999/xlink" x="0px" y="0px"
	 viewBox="0 0 800 800" style="enable-background:new 0 0 800 800;" xml:space="preserve">
<style type="text/css">
	.st0{fill:#2C3F58;}
</style>
<g>
	<g>
		<path class="st0" d="M625.1,119.8c-0.6-7.9-7.5-13.8-15.4-13.2c-7.9,0.6-13.8,7.5-13.2,15.4c2,27-1.8,56.7-10.9,85.8
			c-2.5,8-6.3,16.4-11.2,25.1c-1.4,2.5-2.9,5-4.5,7.4H307c-7.9,0-14.3,6.4-14.3,14.3S299.1,269,307,269h240.2
			c-33.5,34.3-80.5,54.5-130.4,54.5h-33.5c-50,0-96.9-20.2-130.4-54.5h9.2c7.9,0,14.3-6.4,14.3-14.3s-6.4-14.3-14.3-14.3h-31.9
			c-1.5-2.4-3-4.9-4.5-7.4c-4.9-8.7-8.7-17.1-11.2-25.1c-24.3-77.1-8.2-153.8,35.1-167.4c21.9-6.9,48.6,3.4,73.3,28.2
			c3.1,3.1,7.4,4.6,11.7,4.1c4.3-0.5,8.2-2.9,10.5-6.5c15.5-24.2,35-37.5,54.9-37.5c19.9,0,39.4,13.3,54.9,37.5
			c2.3,3.7,6.2,6.1,10.5,6.5c4.3,0.5,8.6-1.1,11.7-4.1c24.7-24.8,51.5-35.1,73.3-28.2c20.1,6.3,31.1,24.9,36.9,39.4
			c2.9,7.4,11.3,11,18.6,8c7.4-2.9,11-11.3,8-18.6c-11.5-29.1-30.5-48.6-54.9-56.2c-28.4-9-60.5-0.2-89.9,24C449.6,13,425.5,0,400,0
			c-25.5,0-49.6,13-69.2,37c-29.4-24.2-61.5-33-89.9-24c-30,9.4-51.8,36.7-61.4,76.9c-9,37.5-6.3,82.5,7.6,126.6
			c3.1,9.9,7.7,20.2,13.6,30.6c36.7,64.8,106.7,105.1,182.6,105.1h33.5c75.9,0,145.9-40.3,182.6-105.1c5.9-10.4,10.5-20.7,13.6-30.6
			C623.2,183.8,627.4,150.4,625.1,119.8z"/>
	</g>
</g>
<g>
	<g>
		<path class="st0" d="M624.2,457h-57.4c-63.9,0-120.2,33.3-152.5,83.4v-156c0-7.9-6.4-14.3-14.3-14.3s-14.3,6.4-14.3,14.3v77.4
			c-32.3-50.2-88.6-83.4-152.5-83.4h-57.4c-7.9,0-14.3,6.4-14.3,14.3v57.4c0,99.9,81.3,181.2,181.2,181.2h43v154.3
			c0,7.9,6.4,14.3,14.3,14.3c7.9,0,14.3-6.4,14.3-14.3v-75.7h43c99.9,0,181.2-81.3,181.2-181.2v-57.4
			C638.6,463.5,632.1,457,624.2,457z M385.7,582.4L321,517.7c-5.6-5.6-14.7-5.6-20.3,0c-5.6,5.6-5.6,14.7,0,20.3l64.6,64.6h-22.7
			c-84.1,0-152.5-68.4-152.5-152.5v-43h43c84.1,0,152.5,68.4,152.5,152.5V582.4z M609.9,528.8L609.9,528.8
			c0,84.1-68.4,152.5-152.5,152.5h-43v-43c0-84.1,68.4-152.5,152.5-152.5h43L609.9,528.8L609.9,528.8z"/>
	</g>
</g>
<g>
	<g>
		<path d="M567.4,528.2c-5.6-5.6-14.7-5.6-20.3,0L438.7,636.6c-5.6,5.6-5.6,14.7,0,20.3c2.8,2.8,6.5,4.2,10.1,4.2s7.3-1.4,10.1-4.2
			l108.5-108.5C573,542.9,573,533.8,567.4,528.2z"/>
	</g>
</g>
<g>
	<g>
		<path d="M289.4,486.2l-36.4-36.4c-5.6-5.6-14.7-5.6-20.3,0c-5.6,5.6-5.6,14.7,0,20.3l36.4,36.4c2.8,2.8,6.5,4.2,10.1,4.2
			s7.3-1.4,10.1-4.2C295,500.9,295,491.8,289.4,486.2z"/>
	</g>
</g>
</svg>
