<svg id="Camada_1" data-name="Camada 1" xmlns="http://www.w3.org/2000/svg" viewBox="0 0 64 64"><defs><style>.cls-1{fill:#303f66;}.cls-2{fill:#f1f2f2;}.cls-3{fill:#ef3827;}.cls-4{fill:#223c72;}</style></defs><title>english</title><path class="cls-1" d="M31.9,31h0V33a3.63,3.63,0,0,0,.2-1.12,2.39,2.39,0,0,0-.2-1"/><path class="cls-2" d="M1,24.31A32,32,0,1,1,24.31,63.05,32,32,0,0,1,1,24.31"/><path class="cls-3" d="M61.59,19.83H36.81v4.9H63.16a31.78,31.78,0,0,0-1.57-4.9M55.26,10H36.81v4.9H59.06a32,32,0,0,0-3.8-4.9M8.89,54.13H55.11A32.41,32.41,0,0,0,59,49.23H5.05a31.76,31.76,0,0,0,3.84,4.9M39.69.94Q38.25.6,36.81.37V5.13H49.39A32.33,32.33,0,0,0,39.69.94M63.91,29.63H36.81v4.9H63.89a30.85,30.85,0,0,0,0-4.9M2.48,44.33h59a30.51,30.51,0,0,0,1.53-4.65,1.83,1.83,0,0,0,.06-.25H.88a31.89,31.89,0,0,0,1.6,4.9M24.31,63.05a32.08,32.08,0,0,0,5.67.88h4.07A31.91,31.91,0,0,0,49.11,59H14.87a32,32,0,0,0,9.44,4"/><path class="cls-4" d="M34.38,32.74l-.69-.51-.69.51.26-.82-.69-.5h.85l.27-.81.26.81h.86l-.69.5ZM31,7l.26.82-.69-.51-.69.51L30.13,7l-.69-.5h.85l.26-.81.27.81h.85Zm0,7.37.26.81-.69-.5-.69.5.27-.81-.69-.51h.85l.26-.81.27.81h.85Zm-.06,7.22.26.81-.69-.51-.69.51.26-.81L29.37,21h.86l.26-.81.26.81h.86Zm.2,7.94-.69-.5-.69.5.26-.81-.69-.51h.85l.27-.81.26.81h.86l-.7.51Zm-3.4-19,.26.81-.69-.5-.69.5.26-.81-.69-.5H27l.26-.81.26.81h.86Zm0,7.14.26.81-.69-.5-.69.5.26-.81-.69-.51H27l.26-.81.26.81h.86Zm0,7.29.26.82-.69-.5-.69.5.26-.82-.69-.49H27l.26-.82.26.82h.86ZM28,32.74l-.69-.51-.69.51.26-.82-.69-.5H27l.26-.81.26.81h.86l-.69.5ZM24.58,7l.27.82-.69-.51-.7.51L23.73,7,23,6.45h.85l.27-.81.26.81h.86Zm0,7.37.27.81-.69-.5-.7.5.27-.81L23,13.81h.85l.27-.81.26.81h.86Zm-.06,7.22.27.81-.7-.51-.69.51.27-.81L23,21h.86l.26-.81.27.81h.85Zm.2,7.94L24,29l-.69.5.26-.81-.69-.51h.85l.27-.81.26.81h.86l-.69.51ZM21.32,3.39l.27.81-.69-.5-.7.5.27-.81-.69-.51h.85l.27-.81.26.81H22Zm0,7.13.27.81-.69-.5-.7.5.27-.81-.69-.5h.85l.27-.81.26.81H22Zm0,7.14.27.81L20.9,18l-.7.5.27-.81-.69-.51h.85l.27-.81.26.81H22Zm0,7.29.27.82-.69-.5-.7.5.27-.82-.69-.49h.85l.27-.82.26.82H22Zm.27,7.79-.69-.51-.7.51.27-.82-.69-.5h.85l.27-.81.26.81H22l-.7.5Zm-3.4-26,.26.81L17.76,7l-.69.5.26-.81-.69-.5h.85l.27-.82L18,6.2h.86Zm0,7.36.26.81-.69-.5-.69.5.26-.81-.69-.5h.85l.27-.81.26.81h.86Zm-.07,7.22.27.81-.69-.5-.7.5.27-.81-.69-.5h.85L17.7,20l.26.82h.85Zm.2,8-.69-.51-.69.51.27-.82-.7-.5h.86l.26-.81.27.81h.85l-.69.5ZM14.93,10.52l.26.81-.69-.5-.69.5.26-.81-.69-.5h.85l.27-.81.26.81h.86Zm0,7.14.26.81L14.5,18l-.69.5.26-.81-.69-.51h.85l.27-.81.26.81h.86Zm0,7.29.26.82-.69-.5-.69.5.26-.82-.69-.49h.85l.27-.82.26.82h.86Zm.26,7.79-.69-.51-.69.51.26-.82-.69-.5h.85l.27-.81.26.81h.86l-.69.5ZM11.79,14l.27.81-.7-.5-.69.5.27-.81-.69-.5h.85l.26-.81.27.81h.85Zm-.06,7.22L12,22l-.69-.5-.69.5.26-.81-.69-.51H11l.26-.81.26.81h.86Zm.2,7.94-.69-.5-.69.5.26-.81-.69-.5H11l.27-.81.26.81h.86l-.7.5ZM27,2.88l.26-.81.26.81h.86l-.69.51L28,4.2l-.69-.5-.69.5.26-.81-.69-.51Zm6.39,21.58.27-.82.26.82h.86l-.69.49.26.82-.69-.5-.69.5.26-.82-.69-.49Zm0-7.31.27-.81.26.81h.86l-.69.51.26.81-.69-.5-.69.5.26-.81-.69-.51Zm0-7.13.27-.81L34,10h.86l-.69.5.26.81-.69-.5-.69.5.26-.81-.69-.5Zm0-7.14.27-.81.26.81h.86l-.69.51.26.81-.69-.5L33,4.2l.26-.81-.69-.51ZM8.53,17.66l.26.81L8.1,18l-.69.5.26-.81L7,17.15h.86l.26-.81.27.81h.85Zm0,7.29.26.82-.69-.5-.69.5L7.67,25,7,24.46h.86l.26-.82.27.82h.85Zm.26,7.79-.69-.51-.69.51.26-.82L7,31.42h.86l.26-.81.26.81h.86l-.69.5ZM5.33,21.08l.26.81-.69-.5-.69.5.26-.81-.69-.5h.86l.26-.81.27.81H6Zm.2,8-.69-.51L4.15,29l.26-.81-.69-.51h.85l.27-.81.26.81H6l-.69.51ZM2.4,32.74l-.69-.51-.7.51.27-.82-.69-.5h.85l.27-.81.26.81h.85l-.69.5ZM36.81.37c-.32,0-2.65-.3-3-.34L28.09.24A32,32,0,0,0,11.94,7.08l.12.36-.3-.22a31.88,31.88,0,0,0-3,2.8h.47l-.69.5.26.81-.69-.5-.27.2c-.65.75-1.26,1.52-1.84,2.33h.1l-.2.14-.42.6.19.57-.38-.27A31.83,31.83,0,0,0,.94,24.31l0,.15h.53l.27-.82.26.82h.85L2.13,25l.27.82-.69-.5-.7.5L1.28,25l-.42-.29A32.16,32.16,0,0,0,.1,34.57H36.81Z"/></svg>