<!DOCTYPE svg PUBLIC "-//W3C//DTD SVG 1.1//EN" "http://www.w3.org/Graphics/SVG/1.1/DTD/svg11.dtd">
<!-- Uploaded to: SVG Repo, www.svgrepo.com, Transformed by: SVG Repo Mixer Tools -->
<svg fill="#2C3F58" height="64px" width="64px" version="1.1" id="Layer_1" xmlns="http://www.w3.org/2000/svg" xmlns:xlink="http://www.w3.org/1999/xlink" viewBox="0 0 405.333 405.333" xml:space="preserve">
<g id="SVGRepo_bgCarrier" stroke-width="0"/>
<g id="SVGRepo_tracerCarrier" stroke-linecap="round" stroke-linejoin="round"/>
<g id="SVGRepo_iconCarrier"> <g> <g> <g> <path d="M322.667,0h-240C63.573,0,48,15.573,48,34.667v314.667c0.107,18.027,13.973,33.067,32,34.453v10.88 c0,5.867,4.8,10.667,10.667,10.667c5.867,0,10.667-4.8,10.667-10.667V384H304v10.667c0,5.867,4.8,10.667,10.667,10.667 c5.867,0,10.667-4.8,10.667-10.667V383.68c18.027-1.387,31.893-16.32,32-34.453V34.56C357.333,15.573,341.76,0,322.667,0z M336,349.333c0,7.36-5.973,13.333-13.333,13.333h-240c-7.36,0-13.333-5.973-13.333-13.333V34.667 c0-7.36,5.973-13.333,13.333-13.333h240c7.36,0,13.333,5.973,13.333,13.333V349.333z"/> <path d="M282.667,106.667c-5.867,0-10.667,4.8-10.667,10.667v64C272,187.2,276.8,192,282.667,192 c5.867,0,10.667-4.8,10.667-10.667v-64C293.333,111.467,288.533,106.667,282.667,106.667z"/> </g> </g> </g> </g>
</svg>