<?xml version="1.0" encoding="utf-8"?>
<!-- Generator: Adobe Illustrator 23.0.5, SVG Export Plug-In . SVG Version: 6.00 Build 0)  -->
<svg version="1.1" id="Flat" xmlns="http://www.w3.org/2000/svg" xmlns:xlink="http://www.w3.org/1999/xlink" x="0px" y="0px"
	 viewBox="0 0 800 800" style="enable-background:new 0 0 800 800;" xml:space="preserve">
<style type="text/css">
	.st0{fill:#2C3F58;}
</style>
<path class="st0" d="M312.5,437.5c0,13.8-11.2,25-25,25s-25-11.2-25-25c0-13.8,11.2-25,25-25C301.3,412.5,312.5,423.7,312.5,437.5z
	 M512.5,462.5c13.8,0,25-11.2,25-25c0-13.8-11.2-25-25-25c-13.8,0-25,11.2-25,25C487.5,451.3,498.7,462.5,512.5,462.5z M722.1,438.5
	c-4.9,2.3-10.3,3.4-15.8,3.5c-11.4,0-22.2-5.4-29.2-14.4l-14.6-18.6V575c-0.1,62.1-50.4,112.4-112.5,112.5H250
	c-62.1-0.1-112.4-50.4-112.5-112.5V408.9l-14.6,18.6c-7,9.1-17.8,14.4-29.2,14.4c-5.4,0-10.8-1.2-15.8-3.5
	c-15.9-7-24.8-24.1-21.4-41.1l51.3-273.6c3.8-20.4,23.4-33.8,43.8-29.9c0.7,0.1,1.5,0.3,2.2,0.5l172.8,43.2h146.9l172.8-43.2
	c20.1-5,40.5,7.2,45.5,27.3c0.2,0.7,0.3,1.4,0.5,2.2l51.3,273.6C746.9,414.4,738,431.5,722.1,438.5z M303.3,157.4l-155.5-38.9
	c-1-0.3-2-0.4-3.1-0.4c-6,0-11.1,4.3-12.3,10.2L81.1,402c-1.3,6.8,3.2,13.3,10,14.6c4.6,0.9,9.3-0.9,12.1-4.6L303.3,157.4z
	 M637.5,377.1L468.9,162.5H331.1L162.5,377.1V575c0.1,48.3,39.2,87.4,87.5,87.5h137.5v-57.3l-46.3-46.3c-4.9-4.9-4.9-12.8,0-17.7
	c4.9-4.9,12.8-4.9,17.7,0l41.2,41.2l41.2-41.2c4.9-4.9,12.8-4.9,17.7,0c4.9,4.9,4.9,12.8,0,17.7l-46.3,46.3v57.3H550
	c48.3-0.1,87.4-39.2,87.5-87.5V377.1z M718.9,402l-51.3-273.6c-1.3-6.8-7.8-11.3-14.6-10c-0.2,0-0.5,0.1-0.7,0.2l-155.5,38.9
	l200,254.6c4.3,5.4,12.1,6.4,17.6,2.1C718,411.3,719.8,406.6,718.9,402L718.9,402z"/>
</svg>
